<?xml version="1.0" encoding="UTF-8" standalone="no"?>
<!-- Created with Inkscape (http://www.inkscape.org/) -->

<svg
   xmlns:dc="http://purl.org/dc/elements/1.1/"
   xmlns:cc="http://creativecommons.org/ns#"
   xmlns:rdf="http://www.w3.org/1999/02/22-rdf-syntax-ns#"
   xmlns:svg="http://www.w3.org/2000/svg"
   xmlns="http://www.w3.org/2000/svg"
   xmlns:xlink="http://www.w3.org/1999/xlink"
   xmlns:sodipodi="http://sodipodi.sourceforge.net/DTD/sodipodi-0.dtd"
   xmlns:inkscape="http://www.inkscape.org/namespaces/inkscape"
   version="1.1"
   width="512"
   height="512"
   id="svg7897"
   inkscape:version="0.48.4 r9939"
   sodipodi:docname="icon (another copy).svg">
  <sodipodi:namedview
     pagecolor="#ffffff"
     bordercolor="#666666"
     borderopacity="1"
     objecttolerance="10"
     gridtolerance="10"
     guidetolerance="10"
     inkscape:pageopacity="0"
     inkscape:pageshadow="2"
     inkscape:window-width="1920"
     inkscape:window-height="1016"
     id="namedview3211"
     showgrid="false"
     inkscape:zoom="0.74025241"
     inkscape:cx="239.12697"
     inkscape:cy="265.15204"
     inkscape:window-x="1920"
     inkscape:window-y="0"
     inkscape:window-maximized="1"
     inkscape:current-layer="svg7897" />
  <defs
     id="defs7899">
    <filter
       x="-0.11066016"
       y="-0.1337385"
       width="1.2213203"
       height="1.267477"
       color-interpolation-filters="sRGB"
       id="filter4039-5-7">
      <feGaussianBlur
         id="feGaussianBlur7902"
         stdDeviation="0.68935198" />
    </filter>
    <filter
       x="-0.081603482"
       y="-0.22100163"
       width="1.1632071"
       height="1.4420033"
       color-interpolation-filters="sRGB"
       id="filter4659-9-5">
      <feGaussianBlur
         id="feGaussianBlur7905"
         stdDeviation="0.79385718" />
    </filter>
    <radialGradient
       cx="7.6958599"
       cy="13.416137"
       r="0.91843593"
       id="radialGradient6798"
       gradientUnits="userSpaceOnUse"
       gradientTransform="matrix(1,0,0,2.5517243,0,-20.818145)">
      <stop
         id="stop7908"
         style="stop-color:#ffff99;stop-opacity:1"
         offset="0" />
      <stop
         id="stop7910"
         style="stop-color:#ffff99;stop-opacity:0"
         offset="1" />
    </radialGradient>
    <radialGradient
       cx="5.789216"
       cy="1014.4925"
       r="6.2821469"
       id="radialGradient6961"
       gradientUnits="userSpaceOnUse"
       gradientTransform="matrix(4.0428951,0.42584633,0.57212323,-2.9153778,-687.29962,2790.5044)">
      <stop
         id="stop7913"
         style="stop-color:#fdd99b;stop-opacity:1"
         offset="0" />
      <stop
         id="stop7915"
         style="stop-color:#fdd99b;stop-opacity:0"
         offset="1" />
    </radialGradient>
    <radialGradient
       cx="10.782503"
       cy="1026.9442"
       r="6.2821469"
       id="radialGradient6963"
       gradientUnits="userSpaceOnUse"
       gradientTransform="matrix(-0.8569872,2.6750944,5.3959594,1.1024696,-5574.2292,-1327.8741)">
      <stop
         id="stop7918"
         style="stop-color:#816647;stop-opacity:1"
         offset="0" />
      <stop
         id="stop7920"
         style="stop-color:#816647;stop-opacity:0"
         offset="1" />
    </radialGradient>
    <radialGradient
       cx="7.6958599"
       cy="13.416137"
       r="0.91843593"
       id="radialGradient6965"
       gradientUnits="userSpaceOnUse"
       gradientTransform="matrix(0.59151719,-0.78458405,-2.1143622,-1.5093888,9.9376481,63.447521)">
      <stop
         id="stop7923"
         style="stop-color:#ffff99;stop-opacity:1"
         offset="0" />
      <stop
         id="stop7925"
         style="stop-color:#ffff99;stop-opacity:0"
         offset="1" />
    </radialGradient>
    <radialGradient
       cx="11.602695"
       cy="14.95667"
       r="6.1394477"
       id="radialGradient6998"
       gradientUnits="userSpaceOnUse"
       gradientTransform="matrix(-1.3678762,22.391853,-12.763397,-0.92084547,370.2195,-89.797651)">
      <stop
         id="stop7928"
         style="stop-color:#ffff99;stop-opacity:1"
         offset="0" />
      <stop
         id="stop7930"
         style="stop-color:#ffff99;stop-opacity:0"
         offset="1" />
    </radialGradient>
    <radialGradient
       cx="7.6958599"
       cy="13.416137"
       r="0.91843593"
       id="radialGradient7001"
       xlink:href="#radialGradient6798"
       gradientUnits="userSpaceOnUse"
       gradientTransform="matrix(5.8754377,9.9034,-25.636444,14.778633,432.12946,-119.26922)" />
    <radialGradient
       cx="194.02255"
       cy="1015.4748"
       r="7.4233093"
       id="radialGradient7004"
       gradientUnits="userSpaceOnUse"
       gradientTransform="matrix(5.3104502,0,0,13.607592,-689.14496,-13611.316)">
      <stop
         id="stop7934"
         style="stop-color:#ffffff;stop-opacity:1"
         offset="0" />
      <stop
         id="stop7936"
         style="stop-color:#ffffff;stop-opacity:0"
         offset="1" />
    </radialGradient>
    <radialGradient
       cx="177.35204"
       cy="1030.8864"
       r="8.3949194"
       id="radialGradient7007"
       gradientUnits="userSpaceOnUse"
       gradientTransform="matrix(5.3104502,0,0,4.034393,-687.34488,-3834.553)">
      <stop
         id="stop7939"
         style="stop-color:#ffffff;stop-opacity:1"
         offset="0" />
      <stop
         id="stop7941"
         style="stop-color:#ffffff;stop-opacity:0"
         offset="1" />
    </radialGradient>
    <radialGradient
       cx="186.90556"
       cy="1036.3625"
       r="21.097557"
       id="radialGradient7010"
       gradientUnits="userSpaceOnUse"
       gradientTransform="matrix(4.6035703,-12.211373,4.2403012,3.1201168,-4976.4364,-581.20009)">
      <stop
         id="stop7944"
         style="stop-color:#5c3566;stop-opacity:1"
         offset="0" />
      <stop
         id="stop7946"
         style="stop-color:#5c3566;stop-opacity:0"
         offset="1" />
    </radialGradient>
    <radialGradient
       cx="26.418592"
       cy="16.090059"
       r="5.1701593"
       id="radialGradient7016"
       gradientUnits="userSpaceOnUse"
       gradientTransform="matrix(-26.213744,-5.4074999,-8.8628476,-17.822992,1170.6396,565.39296)">
      <stop
         id="stop7949"
         style="stop-color:#816647;stop-opacity:1"
         offset="0" />
      <stop
         id="stop7951"
         style="stop-color:#816647;stop-opacity:0"
         offset="1" />
    </radialGradient>
    <radialGradient
       cx="7.6958599"
       cy="13.416137"
       r="0.91843593"
       id="radialGradient7020"
       xlink:href="#radialGradient6798"
       gradientUnits="userSpaceOnUse"
       gradientTransform="matrix(6.5336676,9.9236278,-34.840554,15.574689,625.39352,-182.94908)" />
    <radialGradient
       cx="11.725694"
       cy="37.61631"
       r="4.8183403"
       id="radialGradient7023"
       gradientUnits="userSpaceOnUse"
       gradientTransform="matrix(7.1338906,4.8302221,-1.8006706,3.1409242,154.18788,216.66434)">
      <stop
         id="stop7955"
         style="stop-color:#ffff99;stop-opacity:1"
         offset="0" />
      <stop
         id="stop7957"
         style="stop-color:#ffff99;stop-opacity:0"
         offset="1" />
    </radialGradient>
    <radialGradient
       cx="15.222162"
       cy="31.110538"
       r="9.9275646"
       id="radialGradient7026"
       gradientUnits="userSpaceOnUse"
       gradientTransform="matrix(3.0692718,8.351138,-7.2863259,3.1627295,355.16267,-132.76747)">
      <stop
         id="stop7960"
         style="stop-color:#fdd99b;stop-opacity:1"
         offset="0" />
      <stop
         id="stop7962"
         style="stop-color:#fdd99b;stop-opacity:0"
         offset="1" />
    </radialGradient>
    <radialGradient
       cx="30.210598"
       cy="45.443699"
       r="9.9275646"
       id="radialGradient7029"
       gradientUnits="userSpaceOnUse"
       gradientTransform="matrix(3.4808357,-5.4731251,7.013043,5.2676686,-131.47368,71.231302)">
      <stop
         id="stop7965"
         style="stop-color:#816647;stop-opacity:1"
         offset="0" />
      <stop
         id="stop7967"
         style="stop-color:#816647;stop-opacity:0"
         offset="1" />
    </radialGradient>
    <radialGradient
       cx="13.575941"
       cy="1020.6169"
       r="11.608798"
       id="radialGradient7033"
       gradientUnits="userSpaceOnUse"
       gradientTransform="matrix(10.07134,15.931626,-7.1121606,5.3099758,7308.5836,-5477.2181)">
      <stop
         id="stop7970"
         style="stop-color:#fdd99b;stop-opacity:1"
         offset="0" />
      <stop
         id="stop7972"
         style="stop-color:#fdd99b;stop-opacity:0"
         offset="1" />
    </radialGradient>
    <radialGradient
       cx="14.105035"
       cy="1023.434"
       r="11.608798"
       id="radialGradient7036"
       gradientUnits="userSpaceOnUse"
       gradientTransform="matrix(12.608741,35.12776,-24.601485,10.429092,25189.159,-10995.058)">
      <stop
         id="stop7975"
         style="stop-color:#816647;stop-opacity:0"
         offset="0" />
      <stop
         id="stop7977"
         style="stop-color:#816647;stop-opacity:1"
         offset="1" />
    </radialGradient>
    <radialGradient
       cx="23.118576"
       cy="43.713055"
       r="10.421875"
       id="radialGradient7039"
       gradientUnits="userSpaceOnUse"
       gradientTransform="matrix(6.6269793,-5.4906406,10.157678,14.479408,-304.41599,-81.964024)">
      <stop
         id="stop7980"
         style="stop-color:#565248;stop-opacity:1"
         offset="0" />
      <stop
         id="stop7982"
         style="stop-color:#565248;stop-opacity:0"
         offset="1" />
    </radialGradient>
    <radialGradient
       cx="10.782503"
       cy="1026.9442"
       r="6.2821469"
       id="radialGradient7044"
       gradientUnits="userSpaceOnUse"
       gradientTransform="matrix(2.149169,-8.0247757,13.199985,5.340928,-13395.304,-5153.6584)">
      <stop
         id="stop7985"
         style="stop-color:#816647;stop-opacity:1"
         offset="0" />
      <stop
         id="stop7987"
         style="stop-color:#816647;stop-opacity:0"
         offset="1" />
    </radialGradient>
    <radialGradient
       cx="5.789216"
       cy="1014.4925"
       r="6.2821469"
       id="radialGradient7047"
       gradientUnits="userSpaceOnUse"
       gradientTransform="matrix(9.2939297,5.0092652,-3.1172496,8.2012825,3206.8225,-8172.2335)">
      <stop
         id="stop7990"
         style="stop-color:#fdd99b;stop-opacity:1"
         offset="0" />
      <stop
         id="stop7992"
         style="stop-color:#fdd99b;stop-opacity:0"
         offset="1" />
    </radialGradient>
  </defs>
  <metadata
     id="metadata7994">
    <rdf:RDF>
      <cc:Work
         rdf:about="">
        <dc:format>image/svg+xml</dc:format>
        <dc:type
           rdf:resource="http://purl.org/dc/dcmitype/StillImage" />
        <dc:title />
      </cc:Work>
    </rdf:RDF>
  </metadata>
  <path
     d="m 33.749462,41.101883 a 11.686892,4.275692 0 1 1 -23.373783,0 11.686892,4.275692 0 1 1 23.373783,0 z"
     transform="matrix(8.519621,0.46814783,-0.38245253,9.5395198,85.443971,8.9204216)"
     id="path7996"
     style="opacity:0.5;fill:#000000;filter:url(#filter4659-9-5)"
     inkscape:connector-curvature="0" />
  <path
     d="m 249.16859,99.940834 c -59.06751,0 -105.20711,64.649416 -105.20711,141.785516 0,44.916 15.78248,84.49879 40.36409,110.65579 2.91417,5.01623 5.20322,11.43436 1.04169,20.94155 -5.72655,2.78931 -11.38735,5.64834 -15.36441,9.62311 -4.96965,4.96641 -8.59368,11.69879 -8.59368,19.24441 0,7.724 3.98003,14.27164 9.1145,19.24441 5.13447,4.97184 11.70458,8.96199 19.53101,12.16879 15.65291,6.4127 36.34667,9.90476 59.11391,9.90476 22.76725,0 43.20056,-3.49206 58.85349,-9.90476 7.82643,-3.2068 14.65698,-7.19695 19.79138,-12.16879 5.13447,-4.97277 8.85413,-11.52041 8.85413,-19.24441 0,-7.54562 -3.62405,-14.278 -8.59368,-19.24441 -3.96702,-3.9648 -9.39605,-6.83834 -15.10398,-9.62311 -4.1649,-9.51082 -1.87305,-15.92442 1.04163,-20.94155 24.58163,-26.157 40.10371,-65.73979 40.10371,-110.65579 0,-77.1361 -45.87918,-141.78642 -104.94668,-141.785516 z m 0,18.112376 c 47.69792,0 88.2802,54.30364 88.2802,123.67314 0,41.1432 -14.52481,77.0682 -36.19751,99.33556 l -0.7812,0.85129 -0.52075,0.85129 c -4.85787,8.36338 -9.21248,23.36768 -1.82287,39.33827 -0.004,-0.008 -0.13837,-0.13581 0,0.28073 l 1.30206,3.96298 3.64577,1.41456 c 6.29503,2.63808 11.06786,5.75794 13.80197,8.4902 2.73404,2.73223 3.12495,4.68476 3.12495,5.94356 0,1.22803 -0.50158,2.8672 -3.38539,5.66013 -2.88357,2.79202 -7.80534,6.10297 -14.32271,8.77273 -13.03489,5.34044 -32.05428,8.77364 -53.12441,8.77274 -21.07017,0 -40.08954,-3.4323 -53.12435,-8.77274 -6.51747,-2.66976 -11.69959,-5.98071 -14.58319,-8.77273 -2.88363,-2.79293 -3.38538,-4.4321 -3.38538,-5.66013 0,-1.2588 0.65134,-3.21133 3.38538,-5.94356 2.73411,-2.73226 7.5069,-5.85212 13.80193,-8.4902 l 3.38539,-1.41456 1.30206,-3.96298 c 0.14237,-0.43468 0.25872,-0.28073 0.26045,-0.28073 7.38961,-15.97059 3.03499,-30.97489 -1.82287,-39.33827 l -0.52079,-0.85129 -0.78126,-0.85129 c -21.67273,-22.26736 -36.45798,-58.19236 -36.45798,-99.33556 0,-69.3695 40.84272,-123.67407 88.54066,-123.67314 z"
     id="path7998"
     style="text-indent:0;text-align:start;text-transform:none;direction:ltr;block-progression:tb;baseline-shift:baseline;color:#000000;fill:#816647;fill-rule:nonzero;enable-background:accumulate"
     inkscape:connector-curvature="0" />
  <g
     transform="matrix(2.1419296,1.504246,1.4895829,-2.5179132,395.7656,-197.30289)"
     id="g8000">
    <path
       d="m 57.794592,-143.2282 c -9.67334,0 -18.35154,8.32661 -18.35154,19.63369 0,11.30707 8.6782,19.53607 18.35154,19.53607 9.67336,0 18.35154,-8.229 18.35154,-19.53607 0,-11.30708 -8.67818,-19.63369 -18.35154,-19.63369 z m 0,11.91692 c 5.10863,0 8.40093,3.95716 8.40093,7.71677 0,3.7596 -3.2923,7.71675 -8.40093,7.71675 -5.10861,0 -8.40093,-3.95715 -8.40093,-7.71675 0,-3.75961 3.29232,-7.71677 8.40093,-7.71677 z"
       id="path8002"
       style="text-indent:0;text-align:start;text-transform:none;direction:ltr;block-progression:tb;baseline-shift:baseline;color:#000000;fill:none;stroke:#816647;stroke-width:5.83496189;stroke-miterlimit:4;stroke-dasharray:none;enable-background:accumulate"
       inkscape:connector-curvature="0" />
    <path
       d="m 57.794592,-143.2282 c -9.67334,0 -18.35154,8.32661 -18.35154,19.63369 0,11.30707 8.6782,19.53607 18.35154,19.53607 9.67336,0 18.35154,-8.229 18.35154,-19.53607 0,-11.30708 -8.67818,-19.63369 -18.35154,-19.63369 z m 0,11.91692 c 5.10863,0 8.40093,3.95716 8.40093,7.71677 0,3.7596 -3.2923,7.71675 -8.40093,7.71675 -5.10861,0 -8.40093,-3.95715 -8.40093,-7.71675 0,-3.75961 3.29232,-7.71677 8.40093,-7.71677 z"
       id="path8004"
       style="text-indent:0;text-align:start;text-transform:none;direction:ltr;block-progression:tb;baseline-shift:baseline;color:#000000;fill:#d9bb7a;stroke:#fdd99b;stroke-width:2.91748095;stroke-miterlimit:4;stroke-dasharray:none;enable-background:accumulate"
       inkscape:connector-curvature="0" />
    <path
       d="m 57.794592,-143.2282 c -9.67334,0 -18.35154,8.32661 -18.35154,19.63369 0,11.30707 8.6782,19.53607 18.35154,19.53607 9.67336,0 18.35154,-8.229 18.35154,-19.53607 0,-11.30708 -8.67818,-19.63369 -18.35154,-19.63369 z m 0,11.91692 c 5.10863,0 8.40093,3.95716 8.40093,7.71677 0,3.7596 -3.2923,7.71676 -8.40093,7.71676 -5.10861,0 -8.40093,-3.95716 -8.40093,-7.71676 0,-3.75961 3.29232,-7.71677 8.40093,-7.71677 z"
       id="path8006"
       style="text-indent:0;text-align:start;text-transform:none;direction:ltr;block-progression:tb;baseline-shift:baseline;color:#000000;fill:url(#radialGradient6961);enable-background:accumulate"
       inkscape:connector-curvature="0" />
    <path
       d="m 57.794592,-143.2282 c -9.67334,0 -18.35154,8.32661 -18.35154,19.63369 0,11.30707 8.6782,19.53607 18.35154,19.53607 9.67336,0 18.35154,-8.229 18.35154,-19.53607 0,-11.30708 -8.67818,-19.63369 -18.35154,-19.63369 z m 0,11.91692 c 5.10863,0 8.40093,3.95716 8.40093,7.71677 0,3.7596 -3.2923,7.71675 -8.40093,7.71675 -5.10861,0 -8.40093,-3.95715 -8.40093,-7.71675 0,-3.75961 3.29232,-7.71677 8.40093,-7.71677 z"
       id="path8008"
       style="text-indent:0;text-align:start;text-transform:none;direction:ltr;block-progression:tb;baseline-shift:baseline;color:#000000;fill:url(#radialGradient6963);enable-background:accumulate"
       inkscape:connector-curvature="0" />
    <path
       d="m 8.6142958,13.416137 a 0.91843593,2.3435953 0 1 1 -1.8368718,0 0.91843593,2.3435953 0 1 1 1.8368718,0 z"
       transform="matrix(2.059639,3.1863268,-3.5218829,1.8634017,80.367632,-187.61921)"
       id="path8010"
       style="opacity:0.75;fill:url(#radialGradient6965)"
       inkscape:connector-curvature="0" />
  </g>
  <path
     d="m 121.95865,152.11941 c -20.71961,14.55109 -26.904528,48.57091 -10.06169,77.04117 16.84281,28.47022 47.68868,36.13599 68.4083,21.58489 20.71966,-14.55111 27.04992,-48.32511 10.2071,-76.79535 -16.84282,-28.47025 -47.83405,-36.38181 -68.55371,-21.83071 z m 17.75124,30.00577 c 10.94233,-7.68464 23.88873,-2.67326 29.48898,6.79311 5.60023,9.46632 4.44286,24.38253 -6.49946,32.06717 -10.9423,7.6846 -23.88871,2.6733 -29.48895,-6.79305 -5.60025,-9.46637 -4.44285,-24.38261 6.49943,-32.06723 z"
     id="path8012"
     style="text-indent:0;text-align:start;text-transform:none;direction:ltr;block-progression:tb;baseline-shift:baseline;color:#000000;fill:none;stroke:#816647;stroke-width:16.12170601;stroke-miterlimit:4;stroke-dasharray:none;enable-background:accumulate"
     inkscape:connector-curvature="0" />
  <path
     d="m 121.95865,152.11941 c -20.71961,14.55109 -26.904528,48.57091 -10.06169,77.04117 16.84281,28.47022 47.68868,36.13599 68.4083,21.58489 20.71966,-14.55111 27.04992,-48.32511 10.2071,-76.79535 -16.84282,-28.47025 -47.83405,-36.38181 -68.55371,-21.83071 z m 17.75124,30.00577 c 10.94233,-7.68464 23.88873,-2.67326 29.48898,6.79311 5.60023,9.46632 4.44286,24.38253 -6.49946,32.06717 -10.9423,7.6846 -23.88871,2.6733 -29.48895,-6.79305 -5.60025,-9.46637 -4.44285,-24.38261 6.49943,-32.06723 z"
     id="path8014"
     style="text-indent:0;text-align:start;text-transform:none;direction:ltr;block-progression:tb;baseline-shift:baseline;color:#000000;fill:#d9bb7a;stroke:#fdd99b;stroke-width:8.060853;stroke-miterlimit:4;stroke-dasharray:none;enable-background:accumulate"
     inkscape:connector-curvature="0" />
  <path
     d="m 121.95865,152.11941 c -20.71961,14.55109 -26.904528,48.57091 -10.06169,77.04117 16.84281,28.47022 47.68868,36.13599 68.4083,21.58489 20.71966,-14.55111 27.04992,-48.32511 10.2071,-76.79535 -16.84282,-28.47025 -47.83405,-36.38181 -68.55371,-21.83071 z m 17.75124,30.00577 c 10.94233,-7.68464 23.88873,-2.67326 29.48898,6.79311 5.60023,9.46632 4.44287,24.38256 -6.49944,32.06719 -10.9423,7.6846 -23.88873,2.67328 -29.48897,-6.79307 -5.60025,-9.46637 -4.44285,-24.38261 6.49943,-32.06723 z"
     id="path8016"
     style="text-indent:0;text-align:start;text-transform:none;direction:ltr;block-progression:tb;baseline-shift:baseline;color:#000000;fill:url(#radialGradient7047);enable-background:accumulate"
     inkscape:connector-curvature="0" />
  <path
     d="m 121.95865,152.11941 c -20.71961,14.55109 -26.904528,48.57091 -10.06169,77.04117 16.84281,28.47022 47.68868,36.13599 68.4083,21.58489 20.71966,-14.55111 27.04992,-48.32511 10.2071,-76.79535 -16.84282,-28.47025 -47.83405,-36.38181 -68.55371,-21.83071 z m 17.75124,30.00577 c 10.94233,-7.68464 23.88873,-2.67326 29.48898,6.79311 5.60023,9.46632 4.44286,24.38253 -6.49946,32.06717 -10.9423,7.6846 -23.88871,2.6733 -29.48895,-6.79305 -5.60025,-9.46637 -4.44285,-24.38261 6.49943,-32.06723 z"
     id="path8018"
     style="text-indent:0;text-align:start;text-transform:none;direction:ltr;block-progression:tb;baseline-shift:baseline;color:#000000;fill:url(#radialGradient7044);enable-background:accumulate"
     inkscape:connector-curvature="0" />
  <path
     d="m 328.01758,124.34979 a 78.94175,36.210119 0 0 1 -157.8835,0 78.94175,36.210119 0 1 1 157.8835,0 z"
     id="path8020"
     style="fill:none;stroke:#816647;stroke-width:17.37439346;stroke-miterlimit:4;stroke-dasharray:none"
     inkscape:connector-curvature="0" />
  <path
     d="m 249.07586,109.06585 c -53.38277,0 -96.73888,59.36425 -96.73888,132.61704 0,43.467 15.39696,81.76382 38.94224,105.95472 3.91877,6.74596 7.38802,17.45038 1.40963,30.37085 -0.23019,0.49809 -0.3737,0.92373 -0.5283,1.39193 -13.94226,5.84214 -22.37862,13.91756 -22.37862,22.72108 0,17.90591 35.45681,32.45919 79.29416,32.45919 43.83743,0 79.29418,-14.55328 79.29418,-32.45919 0,-8.80352 -8.43631,-16.87894 -22.37855,-22.72108 -0.15463,-0.47092 -0.29874,-0.89656 -0.52892,-1.39193 -5.97836,-12.92047 -2.50905,-23.62489 1.40972,-30.37085 23.54527,-24.1909 38.94222,-62.48772 38.94222,-105.95472 0,-73.25279 -43.35618,-132.61704 -96.73888,-132.61704 z"
     id="path8022"
     style="fill:#d9bb7a;stroke:#fdd99b;stroke-width:8.68719482"
     inkscape:connector-curvature="0" />
  <path
     d="m 154.63843,268.77902 c 4.91471,32.11751 18.2057,59.93838 36.71832,78.95866 3.91877,6.74597 7.28046,17.36117 1.30207,30.28164 -0.23021,0.4981 -0.36617,0.94682 -0.52076,1.41502 -13.94228,5.84215 -22.39559,13.83696 -22.39559,22.64048 0,17.9059 35.58881,32.54571 79.42616,32.54571 43.83734,0 79.16578,-14.63981 79.16578,-32.54571 0,-8.80352 -8.45332,-16.79833 -22.39559,-22.64048 -0.1546,-0.4709 -0.29062,-0.91965 -0.52078,-1.41502 -4.92273,-10.63893 -3.38585,-19.65843 -0.52075,-26.31956 -2.36787,0.71575 -4.55287,1.1445 -7.03117,1.98105 -75.03006,25.32661 -122.07919,-42.93112 -143.22745,-84.90179 z"
     id="path8024"
     style="fill:url(#radialGradient7039)"
     inkscape:connector-curvature="0" />
  <path
     d="m 249.07586,109.06585 c -53.38277,0 -96.73888,59.36425 -96.73888,132.61704 0,43.467 15.39696,81.76382 38.94224,105.95472 3.91877,6.74596 7.38802,17.45038 1.40963,30.37085 -0.23019,0.49809 -0.3737,0.92373 -0.5283,1.39193 -13.94226,5.84214 -22.37862,13.91756 -22.37862,22.72108 0,17.90591 35.45681,32.45919 79.29416,32.45919 43.83743,0 79.29418,-14.55328 79.29418,-32.45919 0,-8.80352 -8.43631,-16.87894 -22.37855,-22.72108 -0.15463,-0.47092 -0.29874,-0.89656 -0.52892,-1.39193 -5.97836,-12.92047 -2.50905,-23.62489 1.40972,-30.37085 23.54527,-24.1909 38.94222,-62.48772 38.94222,-105.95472 0,-73.25279 -43.35618,-132.61704 -96.73888,-132.61704 z"
     id="path8026"
     style="fill:url(#radialGradient7036)"
     inkscape:connector-curvature="0" />
  <path
     d="m 249.07586,109.06585 c -53.38277,0 -96.73888,59.36425 -96.73888,132.61704 0,43.467 15.39696,81.76382 38.94224,105.95472 3.91877,6.74596 7.38802,17.45038 1.40963,30.37085 -0.23019,0.49809 -0.3737,0.92373 -0.5283,1.39193 -13.94226,5.84214 -22.37862,13.91756 -22.37862,22.72108 0,17.90591 35.45681,32.45919 79.29416,32.45919 43.83743,0 79.29418,-14.55328 79.29418,-32.45919 0,-8.80352 -8.43631,-16.87894 -22.37855,-22.72108 -0.15463,-0.47092 -0.29874,-0.89656 -0.52892,-1.39193 -5.97836,-12.92047 -2.50905,-23.62489 1.40972,-30.37085 23.54527,-24.1909 38.94222,-62.48772 38.94222,-105.95472 0,-73.25279 -43.35618,-132.61704 -96.73888,-132.61704 z"
     id="path8028"
     style="fill:url(#radialGradient7033)"
     inkscape:connector-curvature="0" />
  <path
     d="m 328.01758,124.34979 a 78.94175,36.210119 0 0 1 -157.8835,0 78.94175,36.210119 0 1 1 157.8835,0 z"
     id="path8030"
     style="fill:#d9bb7a;stroke:#fdd99b;stroke-width:8.68719673;stroke-miterlimit:4;stroke-dasharray:none"
     inkscape:connector-curvature="0" />
  <path
     d="m 328.01762,124.34979 a 78.941755,36.210122 0 0 1 -157.8835,0 78.941755,36.210122 0 1 1 157.8835,0 z"
     id="path8032"
     style="fill:url(#radialGradient7029)"
     inkscape:connector-curvature="0" />
  <path
     d="m 328.01762,124.34979 a 78.941755,36.210122 0 0 1 -157.8835,0 78.941755,36.210122 0 1 1 157.8835,0 z"
     id="path8034"
     style="fill:url(#radialGradient7026)"
     inkscape:connector-curvature="0" />
  <path
     d="m 196.96869,388.02852 c 0,0 -18.09446,0.28975 -19.05158,11.18035 -0.95713,10.89058 17.18241,28.06165 59.15864,23.82222 41.97618,-4.23946 8.38891,-32.21187 8.38891,-32.21187 l -5.92099,15.93925 -41.58984,-2.12399 c 0,0 -19.51422,-3.62954 -0.98507,-16.60596 z"
     id="path8036"
     style="opacity:0.75;fill:url(#radialGradient7023)"
     inkscape:connector-curvature="0" />
  <path
     d="M 214.25083,111.48814 A 10.754694,35.099194 66.886398 1 1 202.24932,93.259704 10.754694,35.099194 66.886398 0 1 214.25083,111.48814 z"
     id="path8038"
     style="opacity:0.75;fill:url(#radialGradient7020)"
     inkscape:connector-curvature="0" />
  <path
     d="m 301.19378,117.42312 a 52.117949,15.38487 0 1 1 -104.23589,0 52.117949,15.38487 0 1 1 104.23589,0 z"
     id="path8040"
     style="fill:#2e3436"
     inkscape:connector-curvature="0" />
  <path
     d="m 233.45092,169.6079 c 0,0 55.64297,-0.94834 78.04854,-15.34827 15.17607,4.57431 30.48667,85.86962 24.77287,90.45533 -13.19259,10.58789 -34.27131,-44.01516 -34.27131,-44.01516 0,0 -36.71678,-19.38993 -68.5501,-31.0919 z"
     id="path8042"
     style="fill:url(#radialGradient7016)"
     inkscape:connector-curvature="0" />
  <path
     d="m 31.241055,33.348629 a 7.525218,6.099987 0 1 1 -15.050436,0 7.525218,6.099987 0 1 1 15.050436,0 z"
     transform="matrix(7.8084274,1.2897665,-0.92401222,7.3721613,112.37458,88.8772)"
     id="path8044"
     style="opacity:0.5;fill:#000000;filter:url(#filter4039-5-7)"
     inkscape:connector-curvature="0" />
  <path
     d="M 351.66399,99.771255 299.12954,299.39178 c -9.99111,-8.33544 -22.73471,-13.73137 -36.62223,-14.83831 -31.98753,-2.5522 -57.87657,19.42627 -57.8254,49.02123 0.0523,29.59715 26.02426,55.47355 58.01185,58.0228 27.50343,2.19982 50.36442,-13.67128 56.23699,-36.99028 l 0.4022,-1.1545 c 0.0691,-0.31183 0.13893,-0.63819 0.19883,-0.92664 l 39.35088,-149.66544 c 9.7476,33.02187 32.30528,58.23127 69.87465,57.78026 -24.16768,-13.71206 -36.72043,-47.7147 -42.36901,-81.80712 -5.64912,-34.09141 -3.93353,-64.43792 -3.93353,-64.43792 l -0.1954,-0.0824 0.20169,-0.68297 -30.79245,-13.884131 z"
     id="path8046"
     style="fill:#3465a4;stroke:none"
     inkscape:connector-curvature="0" />
  <path
     d="m 345.43485,87.211657 -1.01378,5.373751 -0.94618,5.109863 -0.0676,0.28788 -49.33644,187.409589 c -9.26482,-5.36579 -19.72487,-8.8707 -30.93104,-9.76391 -35.96013,-2.86915 -66.94661,22.7761 -66.88582,57.95975 0.0619,35.12315 29.93475,64.07334 65.80448,66.93201 30.58291,2.4461 57.40976,-15.27934 64.76818,-42.77411 l 0.40551,-1.15152 0,-0.024 0.0225,-0.024 0.0901,-0.26389 0.11265,-0.35984 0.0675,-0.38384 0,-0.024 c 0.0121,-0.0547 0.0113,-0.0917 0.0225,-0.14395 l 0.0225,-0.096 c 0.018,-0.0847 0.029,-0.16287 0.0451,-0.2399 l 0.0225,-0.072 0.0451,-0.16793 0,-0.0479 0,-0.024 0.0225,-0.024 33.02614,-125.68342 c 13.61045,23.9732 36.5296,40.97031 68.12487,40.59103 l 16.44549,-0.19194 16.44549,-0.1919 -14.50808,-8.25256 -14.5306,-8.25254 c -20.06902,-11.38674 -32.58762,-42.59299 -38.0273,-75.42454 -5.41784,-32.69563 -3.82596,-61.91146 -3.80723,-62.25396 l 0.76594,-2.61491 1.14894,-3.88637 -3.5369,-1.58334 -3.51439,-1.58334 -0.0225,0 -30.75082,-13.890189 -0.0225,0 -4.77596,-2.135107 -4.7309,-2.135106 z m 6.24026,12.522761 0.0225,0 4.37044,1.991172 -4.39297,-1.967182 0,-0.02398 z m 5.51938,12.234882 14.93611,6.74118 -0.24782,0.86364 1.98248,0.83964 c -0.25012,9.78221 -0.27249,32.77143 4.23527,59.97491 3.87012,23.35843 10.83659,47.15881 23.20391,65.39665 -17.17127,-8.229 -28.20036,-24.60125 -34.40036,-45.60493 l -4.23527,-14.39397 -4.23528,-14.39398 -3.82978,14.51392 -3.82976,14.51393 0,0.024 -39.35654,149.67342 -0.045,0.14393 -0.0225,0.16793 -0.0225,0.11995 0,0.0479 -0.0225,0.072 c -0.006,0.0237 -0.0116,0.0964 -0.0225,0.14394 l -0.22527,0.64773 -0.0225,0 -0.0676,0.19192 -0.11264,0.31187 -0.0451,0.28787 0,0.0479 -0.0451,0.16795 c -4.77202,18.58664 -23.35543,32.13003 -47.4441,30.20335 -28.0899,-2.23864 -50.17279,-25.14402 -50.21505,-49.10746 -0.0415,-24.0343 20.66462,-42.32993 48.77325,-40.08723 12.2338,0.97513 23.41204,5.76586 32.05745,12.97857 l 4.95616,4.12628 4.95618,4.12627 1.68962,-6.4533 1.68938,-6.45325 49.96725,-189.83259 z m 25.25397,1.65531 0.0225,0 0.0451,0.024 -0.0225,0.35985 -0.0225,0.35985 0,0.024 -0.0225,0 -0.20276,-0.096 0.20276,-0.67172 z m -0.18024,8.42047 c -0.0385,2.60022 -0.0126,5.77227 0.0451,9.52401 -0.0531,-3.89064 -0.0947,-6.99375 -0.0451,-9.52401 z m 0.11265,12.88261 c 0.12053,4.61521 0.41197,10.06551 0.81101,15.71344 -0.4178,-5.84946 -0.69916,-11.05834 -0.81101,-15.71344 z m 1.21651,21.39905 c 0.19648,2.21665 0.42195,4.50541 0.67584,6.81315 -0.26094,-2.34393 -0.47533,-4.5755 -0.67584,-6.81315 z m 1.14894,11.0114 c 0.46723,3.76489 0.99785,7.58853 1.64455,11.49119 -0.6483,-3.91439 -1.17605,-7.75118 -1.64455,-11.49119 z m 1.64455,11.51517 c 0.65926,3.97695 1.44557,7.95923 2.29786,11.89903 -0.85726,-3.95477 -1.63742,-7.91283 -2.29786,-11.89903 z m 3.10887,15.37758 c 0.5842,2.50731 1.19933,4.99774 1.86983,7.46087 -0.67106,-2.46163 -1.28525,-4.95644 -1.86983,-7.46087 z m -30.61565,8.63638 c 1.01539,3.4398 2.17423,6.79861 3.46932,10.05181 l -3.80723,-8.80433 0,-0.024 0.33791,-1.22349 z m 33.97233,3.93435 c 0.63666,2.10295 1.32074,4.16418 2.02753,6.21341 -0.70765,-2.05068 -1.3899,-4.1092 -2.02753,-6.21341 z m -30.0975,7.05306 c 0.35528,0.86822 0.79569,1.66638 1.17146,2.51894 -0.18037,-0.4044 -0.40989,-0.7675 -0.58574,-1.1755 l -0.58572,-1.34344 z m 33.81463,3.88637 c 0.88452,2.31827 1.8531,4.57016 2.83854,6.78916 -0.9874,-2.2237 -1.95179,-4.46505 -2.83854,-6.78916 z m 4.34791,10.24372 c 1.60204,3.33147 3.32177,6.52428 5.18146,9.548 -1.8561,-3.01869 -3.58014,-6.21702 -5.18146,-9.548 z m -27.2139,5.46971 c 0.16897,0.22901 0.34698,0.44496 0.51815,0.67171 -0.17128,-0.22661 -0.34903,-0.44285 -0.51815,-0.67171 z m 36.99109,10.79548 c 0.26497,0.35079 0.54147,0.68718 0.81101,1.03158 -0.2693,-0.34356 -0.54623,-0.68149 -0.81101,-1.03158 z m 6.15015,7.12502 c 3.6162,3.64539 7.55097,6.79555 11.89482,9.26013 -0.9136,0.0107 -1.78511,-0.0526 -2.68083,-0.072 l -9.05629,-8.99619 c -0.0574,-0.0573 -0.10045,-0.13447 -0.1577,-0.19191 z m -16.2202,3.91037 c 0.4714,0.20054 0.94034,0.40999 1.41927,0.59974 -0.47796,-0.19197 -0.94877,-0.397 -1.41927,-0.59974 z m 4.32539,1.6553 c 0.76401,0.25957 1.51564,0.53511 2.29785,0.76769 -0.77975,-0.23598 -1.53607,-0.50481 -2.29785,-0.76769 z m 4.66332,1.41542 c 1.0398,0.2665 2.08308,0.52478 3.15392,0.74368 -1.06793,-0.22382 -2.1167,-0.47239 -3.15392,-0.74368 z m -139.04324,27.37254 c 0.33132,0.0684 0.66178,0.14267 0.99123,0.21591 -0.32897,-0.0729 -0.66042,-0.14781 -0.99123,-0.21591 z m 8.62826,2.39899 c 0.17429,0.0616 0.34456,0.12887 0.51814,0.19192 -0.17269,-0.0627 -0.34477,-0.13064 -0.51814,-0.19192 z m 13.56189,6.74118 c 0.53456,0.34506 1.12139,0.62366 1.64454,0.98359 l 4.77595,3.28663 -0.0675,0.26388 c -1.99012,-1.66032 -4.15762,-3.11652 -6.35291,-4.5341 z m -74.90582,5.66163 c -2.35794,2.4622 -4.43772,5.16268 -6.21774,8.06063 1.78027,-2.89754 3.85948,-5.59895 6.21774,-8.06063 z m -8.65077,12.54676 c -2.19267,4.63649 -3.65038,9.68561 -4.23529,15.0417 0.585,-5.35615 2.04232,-10.4057 4.23529,-15.0417 z m -1.89236,36.65666 c 1.13363,3.44197 2.60499,6.76149 4.39297,9.93185 -1.78824,-3.1691 -3.25917,-6.49117 -4.39297,-9.93185 z m 112.27986,2.47098 0.0225,0 -0.0225,0.096 0,-0.096 z m -0.24779,1.1275 c -0.007,0.036 -0.015,0.0859 -0.0225,0.11997 l 0,0.024 -0.0225,0.096 -0.33791,0.93561 0,-0.0479 0,-0.024 0.29286,-0.83967 0.0901,-0.26389 z m -0.42804,1.24748 0.0225,0 -0.0225,0.024 0,-0.024 z m -0.0676,0.23991 -0.0225,0.14394 c -0.11022,0.42378 -0.26159,0.82877 -0.38298,1.24748 0.13459,-0.46412 0.28464,-0.9211 0.4055,-1.39142 z m -104.23729,9.47604 c 1.56916,2.26121 3.37008,4.38093 5.24904,6.42931 -1.8835,-2.05111 -3.67656,-4.16456 -5.24904,-6.42931 z"
     id="path8046-7-7"
     style="font-size:medium;font-style:normal;font-variant:normal;font-weight:normal;font-stretch:normal;text-indent:0;text-align:start;text-decoration:none;line-height:normal;letter-spacing:normal;word-spacing:normal;text-transform:none;direction:ltr;block-progression:tb;writing-mode:lr-tb;text-anchor:start;baseline-shift:baseline;color:#000000;fill:#3465a4;fill-opacity:1;stroke:none;stroke-width:11.67800045;marker:none;visibility:visible;display:inline;overflow:visible;enable-background:accumulate;font-family:Sans;-inkscape-font-specification:Sans"
     inkscape:connector-curvature="0" />
  <path
     d="m 348.54371,93.473037 -1.01377,5.397742 0,0.02398 -50.84584,193.191178 c -9.75693,-6.71254 -21.36719,-10.99923 -33.85968,-11.99499 -33.95169,-2.7089 -62.41364,21.11495 -62.35769,53.49762 0.0572,32.38462 27.97474,59.7656 61.90712,62.46987 29.03649,2.32243 53.89938,-14.47505 60.5104,-39.89531 l 0.40549,-1.15151 0.0901,-0.26389 0.045,-0.2639 c 0.0558,-0.25191 0.10626,-0.49995 0.1577,-0.74368 l 0.0676,-0.2399 35.86468,-136.43093 c 12.04653,27.95042 35.01989,48.46339 69.29633,48.0519 l 16.44549,-0.19191 -14.53061,-8.25255 c -22.15292,-12.56895 -34.64369,-45.13947 -40.19006,-78.61511 -5.54952,-33.49019 -3.87484,-63.40548 -3.87484,-63.40548 l 0.0225,-0.35985 0.94618,-3.21466 -3.53683,-1.58333 -30.77335,-13.890193 -4.77594,-2.135106 z m 5.87983,12.378823 22.86598,10.31568 -0.22527,0.76768 1.08134,0.45581 c -0.27198,7.42861 -0.77213,32.82699 4.10011,62.22997 4.7307,28.55252 14.1281,57.5376 31.87721,75.20854 -26.9098,-5.24641 -43.21422,-26.15471 -51.22882,-53.30571 l -4.23528,-14.39398 -3.82977,14.51393 -39.35653,149.67339 -0.0225,0.11994 -0.0225,0.11997 c -0.0325,0.15634 -0.0754,0.33096 -0.11265,0.50378 l -0.33798,0.98359 -0.0676,0.19191 -0.045,0.21592 c -5.28844,20.99947 -26.03773,35.74721 -51.85961,33.68191 -30.04278,-2.39428 -54.06514,-26.7599 -54.11242,-53.5696 -0.0463,-26.80722 23.27805,-46.94484 53.30141,-44.54936 13.06332,1.04124 25.01527,6.14072 34.33277,13.91417 l 4.95618,4.12629 1.68956,-6.4533 51.25135,-194.75053 z"
     id="path8046-7"
     style="font-size:medium;font-style:normal;font-variant:normal;font-weight:normal;font-stretch:normal;text-indent:0;text-align:start;text-decoration:none;line-height:normal;letter-spacing:normal;word-spacing:normal;text-transform:none;direction:ltr;block-progression:tb;writing-mode:lr-tb;text-anchor:start;baseline-shift:baseline;color:#000000;fill:#729fcf;fill-opacity:1;fill-rule:nonzero;stroke:none;stroke-width:11.67757988;marker:none;visibility:visible;display:inline;overflow:visible;enable-background:accumulate;font-family:Sans;-inkscape-font-specification:Sans"
     inkscape:connector-curvature="0" />
  <path
     d="M 351.66399,99.771255 299.12954,299.39178 c -9.99111,-8.33544 -22.73471,-13.73137 -36.62223,-14.83831 -31.98753,-2.5522 -57.87657,19.42627 -57.8254,49.02123 0.0523,29.59715 26.02426,55.47355 58.01185,58.0228 27.50343,2.19982 50.36442,-13.67128 56.23699,-36.99028 l 0.4022,-1.1545 c 0.0691,-0.31183 0.13893,-0.63819 0.19883,-0.92664 l 39.35088,-149.66544 c 9.7476,33.02187 32.30528,58.23127 69.87465,57.78026 -24.16768,-13.71206 -36.72043,-47.7147 -42.36901,-81.80712 -5.64912,-34.09141 -3.93353,-64.43792 -3.93353,-64.43792 l -0.1954,-0.0824 0.20169,-0.68297 -30.79245,-13.884131 z"
     id="path8048"
     style="fill:url(#radialGradient7010)"
     inkscape:connector-curvature="0" />
  <path
     d="m 240.77117,293.65013 c -17.71627,6.34032 -30.15534,22.13645 -30.84875,42.45892 -0.26272,7.71069 1.27116,15.11799 4.10808,22.20547 2.05508,-24.64117 21.55753,-47.06552 48.02394,-52.96816 13.31015,-2.96984 26.05112,-1.37622 36.71805,3.85871 l 0.28243,-3.64285 c -8.81336,-7.38418 -19.55658,-12.42482 -31.35999,-14.28177 -9.63731,-1.51647 -18.871,-0.51206 -26.92364,2.37188 z"
     id="path8050"
     style="fill:url(#radialGradient7007)"
     inkscape:connector-curvature="0" />
  <path
     d="m 356.49193,105.83791 -54.71088,202.02653 c 14.63611,-42.45455 44.63997,-134.35318 63.55941,-192.43359 l 15.27828,8.92369 c 0.0523,-1.55431 -0.38185,-6.10517 -0.33652,-7.31304 z"
     id="path8052"
     style="fill:url(#radialGradient7004)"
     inkscape:connector-curvature="0" />
  <path
     d="m 138.80019,164.31375 a 10.574928,27.177943 60.165865 0 1 -10.79243,-18.19128 10.574928,27.177943 60.165865 1 1 10.79243,18.19128 z"
     id="path8054"
     style="opacity:0.75;fill:url(#radialGradient7001)"
     inkscape:connector-curvature="0" />
  <path
     d="m 178.90306,153.62394 c 0,0 36.04517,20.89188 71.28937,13.92792 35.24414,-6.96395 -26.43316,59.19369 -26.43316,59.19369 l -28.03514,85.30852 c 0,0 -70.48833,-47.00674 -16.82107,-158.43013 z"
     id="path8056"
     style="opacity:0.75;fill:url(#radialGradient6998)"
     inkscape:connector-curvature="0" />
</svg>
