<!-- Created with Inkscape (http://www.inkscape.org/) -->
<svg xmlns:rdf="http://www.w3.org/1999/02/22-rdf-syntax-ns#" xmlns="http://www.w3.org/2000/svg" height="24" width="24" version="1.1" xmlns:cc="http://creativecommons.org/ns#" xmlns:dc="http://purl.org/dc/elements/1.1/">
 <metadata>
  <rdf:RDF>
   <cc:Work rdf:about="">
    <dc:format>image/svg+xml</dc:format>
    <dc:type rdf:resource="http://purl.org/dc/dcmitype/StillImage"/>
    <dc:title/>
   </cc:Work>
  </rdf:RDF>
 </metadata>
 <g fill="#dcd8d0" transform="matrix(0.91666648,0,0,0.91666648,-37.500001,-15.499987)">
  <path opacity="0.95999995" style="direction:ltr;enable-background:accumulate;baseline-shift:baseline;block-progression:tb;text-indent:0;color:#000000;text-transform:none;text-align:start;" d="m52.434784,17.99999c-3.291802,0-5.967384,1.125302-5.967384,2.51087,0,0.519588,0.368201,1.001768,1.010869,1.402174-0.04218,0.04901-0.05661,0.08023-0.09783,0.130434-0.445419-0.183986-0.943932-0.260869-1.434781-0.260869-2.083485,0-3.945648,1.771632-3.945648,4.206522,0,2.153973,1.448389,3.79265,3.228257,4.141304,0.318887,2.381722,1.363759,4.44803,2.836954,5.836957,0.05599,0.08845,0.114561,0.219185,0.163043,0.326087-0.12708-0.414295-0.19475-0.853048-0.195652-1.304348-0.0051-2.714596,2.587098-4.64646,5.478254-4.434783,0.727989,0.05325,1.418078,0.246858,2.054345,0.521739l2.67391-9.228261c-0.25837,0.04526-0.508075,0.09572-0.749999,0.195652-0.04126-0.0502-0.05569-0.08142-0.09783-0.130434,0.642668-0.400406,1.010869-0.882586,1.010869-1.402174,0-1.385568-2.675571-2.51087-5.967385-2.51087zm-6.489122,6.326087c0.01365,0,0.01916-0.00026,0.03261,0-0.413719,0.966376-0.670576,2.058601-0.782608,3.195653-0.648939-0.282759-1.043477-0.932916-1.043477-1.532609,0-0.809602,0.693157-1.663044,1.793476-1.663044zm2.380432,12.228262c0.129438,0.422712,0.137884,0.935818-0.163043,1.532608-0.01734,0.03451-0.02091,0.0654-0.03261,0.09783-1.052682,0.40477-1.69565,0.955271-1.69565,1.565218,0,1.240597,2.690139,2.25,5.999992,2.25,3.309865,0,5.967385-1.009403,5.967385-2.25,0-0.413573-0.298119-0.808279-0.815217-1.141305-1.03145,1.013115-2.570064,1.587498-4.206516,1.467392-2.306888-0.168706-4.328607-1.574813-5.054342-3.521739z"/>
  <path opacity="0.95999995" d="m60.179256,18.800384-3.966498,13.830568c-0.754361-0.577514-1.716541-0.951367-2.765098-1.028061-2.415157-0.176826-4.369852,1.345935-4.365993,3.396401,0.0041,2.050618,1.964915,3.843447,4.380073,4.02007,2.0766,0.152412,3.802663-0.947205,4.24606-2.562846l0.03038-0.07999c0.0051-0.0216,0.01047-0.04421,0.01498-0.0642l2.97111-10.369464c0.735972,2.287896,2.439151,4.034513,5.275745,4.003264-1.824725-0.950026-2.772498-3.305875-3.198983-5.667943-0.426536-2.361999-0.296997-4.464537-0.296997-4.464537l-0.01478-0.0057,0.01519-0.04732-2.324923-0.961953z"/>
 </g>
</svg>
