<?xml version="1.0" encoding="UTF-8" standalone="no"?>
<!-- Created with Inkscape (http://www.inkscape.org/) -->

<svg
   xmlns:dc="http://purl.org/dc/elements/1.1/"
   xmlns:cc="http://creativecommons.org/ns#"
   xmlns:rdf="http://www.w3.org/1999/02/22-rdf-syntax-ns#"
   xmlns:svg="http://www.w3.org/2000/svg"
   xmlns="http://www.w3.org/2000/svg"
   xmlns:xlink="http://www.w3.org/1999/xlink"
   version="1.1"
   width="512"
   height="512"
   id="svg7897">
  <defs
     id="defs7899">
    <filter
       x="-0.11066016"
       y="-0.1337385"
       width="1.2213203"
       height="1.267477"
       color-interpolation-filters="sRGB"
       id="filter4039-5-7">
      <feGaussianBlur
         id="feGaussianBlur7902"
         stdDeviation="0.68935198" />
    </filter>
    <filter
       x="-0.081603482"
       y="-0.22100163"
       width="1.1632071"
       height="1.4420033"
       color-interpolation-filters="sRGB"
       id="filter4659-9-5">
      <feGaussianBlur
         id="feGaussianBlur7905"
         stdDeviation="0.79385718" />
    </filter>
    <radialGradient
       cx="7.6958599"
       cy="13.416137"
       r="0.91843593"
       id="radialGradient6798"
       gradientUnits="userSpaceOnUse"
       gradientTransform="matrix(1,0,0,2.5517243,0,-20.818145)">
      <stop
         id="stop7908"
         style="stop-color:#ffff99;stop-opacity:1"
         offset="0" />
      <stop
         id="stop7910"
         style="stop-color:#ffff99;stop-opacity:0"
         offset="1" />
    </radialGradient>
    <radialGradient
       cx="5.789216"
       cy="1014.4925"
       r="6.2821469"
       id="radialGradient6961"
       gradientUnits="userSpaceOnUse"
       gradientTransform="matrix(4.0428951,0.42584633,0.57212323,-2.9153778,-687.29962,2790.5044)">
      <stop
         id="stop7913"
         style="stop-color:#fdd99b;stop-opacity:1"
         offset="0" />
      <stop
         id="stop7915"
         style="stop-color:#fdd99b;stop-opacity:0"
         offset="1" />
    </radialGradient>
    <radialGradient
       cx="10.782503"
       cy="1026.9442"
       r="6.2821469"
       id="radialGradient6963"
       gradientUnits="userSpaceOnUse"
       gradientTransform="matrix(-0.8569872,2.6750944,5.3959594,1.1024696,-5574.2292,-1327.8741)">
      <stop
         id="stop7918"
         style="stop-color:#816647;stop-opacity:1"
         offset="0" />
      <stop
         id="stop7920"
         style="stop-color:#816647;stop-opacity:0"
         offset="1" />
    </radialGradient>
    <radialGradient
       cx="7.6958599"
       cy="13.416137"
       r="0.91843593"
       id="radialGradient6965"
       gradientUnits="userSpaceOnUse"
       gradientTransform="matrix(0.59151719,-0.78458405,-2.1143622,-1.5093888,9.9376481,63.447521)">
      <stop
         id="stop7923"
         style="stop-color:#ffff99;stop-opacity:1"
         offset="0" />
      <stop
         id="stop7925"
         style="stop-color:#ffff99;stop-opacity:0"
         offset="1" />
    </radialGradient>
    <radialGradient
       cx="11.602695"
       cy="14.95667"
       r="6.1394477"
       id="radialGradient6998"
       gradientUnits="userSpaceOnUse"
       gradientTransform="matrix(-1.8974613,29.168256,-17.704855,-1.1995191,383.63026,-219.10854)">
      <stop
         id="stop7928"
         style="stop-color:#ffff99;stop-opacity:1"
         offset="0" />
      <stop
         id="stop7930"
         style="stop-color:#ffff99;stop-opacity:0"
         offset="1" />
    </radialGradient>
    <radialGradient
       cx="7.6958599"
       cy="13.416137"
       r="0.91843593"
       id="radialGradient7001"
       xlink:href="#radialGradient6798"
       gradientUnits="userSpaceOnUse"
       gradientTransform="matrix(8.1501642,12.900447,-35.561815,19.251062,469.5092,-257.49904)" />
    <radialGradient
       cx="194.02255"
       cy="1015.4748"
       r="7.4233093"
       id="radialGradient7004"
       gradientUnits="userSpaceOnUse"
       gradientTransform="matrix(7.3664367,0,0,17.725632,-1085.8763,-17832.619)">
      <stop
         id="stop7934"
         style="stop-color:#ffffff;stop-opacity:1"
         offset="0" />
      <stop
         id="stop7936"
         style="stop-color:#ffffff;stop-opacity:0"
         offset="1" />
    </radialGradient>
    <radialGradient
       cx="177.35204"
       cy="1030.8864"
       r="8.3949194"
       id="radialGradient7007"
       gradientUnits="userSpaceOnUse"
       gradientTransform="matrix(7.3664367,0,0,5.2553135,-1083.3793,-5097.1319)">
      <stop
         id="stop7939"
         style="stop-color:#ffffff;stop-opacity:1"
         offset="0" />
      <stop
         id="stop7941"
         style="stop-color:#ffffff;stop-opacity:0"
         offset="1" />
    </radialGradient>
    <radialGradient
       cx="186.90556"
       cy="1036.3625"
       r="21.097557"
       id="radialGradient7010"
       gradientUnits="userSpaceOnUse"
       gradientTransform="matrix(6.3858823,-15.906877,5.8819703,4.0643516,-7033.0296,-859.22315)">
      <stop
         id="stop7944"
         style="stop-color:#5c3566;stop-opacity:1"
         offset="0" />
      <stop
         id="stop7946"
         style="stop-color:#5c3566;stop-opacity:0"
         offset="1" />
    </radialGradient>
    <radialGradient
       cx="26.418592"
       cy="16.090059"
       r="5.1701593"
       id="radialGradient7016"
       gradientUnits="userSpaceOnUse"
       gradientTransform="matrix(-36.362622,-7.0439612,-12.294177,-23.21673,1493.9398,634.36115)">
      <stop
         id="stop7949"
         style="stop-color:#816647;stop-opacity:1"
         offset="0" />
      <stop
         id="stop7951"
         style="stop-color:#816647;stop-opacity:0"
         offset="1" />
    </radialGradient>
    <radialGradient
       cx="7.6958599"
       cy="13.416137"
       r="0.91843593"
       id="radialGradient7020"
       xlink:href="#radialGradient6798"
       gradientUnits="userSpaceOnUse"
       gradientTransform="matrix(9.0632333,12.926797,-48.329375,20.288027,737.5971,-340.45022)" />
    <radialGradient
       cx="11.725694"
       cy="37.61631"
       r="4.8183403"
       id="radialGradient7023"
       gradientUnits="userSpaceOnUse"
       gradientTransform="matrix(9.8958381,6.2919828,-2.4978159,4.091456,83.960141,180.09744)">
      <stop
         id="stop7955"
         style="stop-color:#ffff99;stop-opacity:1"
         offset="0" />
      <stop
         id="stop7957"
         style="stop-color:#ffff99;stop-opacity:0"
         offset="1" />
    </radialGradient>
    <radialGradient
       cx="15.222162"
       cy="31.110538"
       r="9.9275646"
       id="radialGradient7026"
       gradientUnits="userSpaceOnUse"
       gradientTransform="matrix(4.2575669,10.878427,-10.10729,4.1198602,362.74404,-275.08224)">
      <stop
         id="stop7960"
         style="stop-color:#fdd99b;stop-opacity:1"
         offset="0" />
      <stop
         id="stop7962"
         style="stop-color:#fdd99b;stop-opacity:0"
         offset="1" />
    </radialGradient>
    <radialGradient
       cx="30.210598"
       cy="45.443699"
       r="9.9275646"
       id="radialGradient7029"
       gradientUnits="userSpaceOnUse"
       gradientTransform="matrix(4.8284712,-7.1294464,9.7282031,6.861813,-312.29776,-9.3477094)">
      <stop
         id="stop7965"
         style="stop-color:#816647;stop-opacity:1"
         offset="0" />
      <stop
         id="stop7967"
         style="stop-color:#816647;stop-opacity:0"
         offset="1" />
    </radialGradient>
    <radialGradient
       cx="13.575941"
       cy="1020.6169"
       r="11.608798"
       id="radialGradient7033"
       gradientUnits="userSpaceOnUse"
       gradientTransform="matrix(13.970547,20.752982,-9.8656951,6.9169234,10008.242,-7236.9135)">
      <stop
         id="stop7970"
         style="stop-color:#fdd99b;stop-opacity:1"
         offset="0" />
      <stop
         id="stop7972"
         style="stop-color:#fdd99b;stop-opacity:0"
         offset="1" />
    </radialGradient>
    <radialGradient
       cx="14.105035"
       cy="1023.434"
       r="11.608798"
       id="radialGradient7036"
       gradientUnits="userSpaceOnUse"
       gradientTransform="matrix(17.490324,45.758407,-34.126162,13.585226,34811.436,-14424.608)">
      <stop
         id="stop7975"
         style="stop-color:#816647;stop-opacity:0"
         offset="0" />
      <stop
         id="stop7977"
         style="stop-color:#816647;stop-opacity:1"
         offset="1" />
    </radialGradient>
    <radialGradient
       cx="23.118576"
       cy="43.713055"
       r="10.421875"
       id="radialGradient7039"
       gradientUnits="userSpaceOnUse"
       gradientTransform="matrix(9.1926715,-7.1522625,14.090311,18.861284,-552.1962,-208.90423)">
      <stop
         id="stop7980"
         style="stop-color:#565248;stop-opacity:1"
         offset="0" />
      <stop
         id="stop7982"
         style="stop-color:#565248;stop-opacity:0"
         offset="1" />
    </radialGradient>
    <radialGradient
       cx="10.782503"
       cy="1026.9442"
       r="6.2821469"
       id="radialGradient7044"
       gradientUnits="userSpaceOnUse"
       gradientTransform="matrix(2.9812382,-10.453298,18.310473,6.9572427,-18711.333,-6815.4356)">
      <stop
         id="stop7985"
         style="stop-color:#816647;stop-opacity:1"
         offset="0" />
      <stop
         id="stop7987"
         style="stop-color:#816647;stop-opacity:0"
         offset="1" />
    </radialGradient>
    <radialGradient
       cx="5.789216"
       cy="1014.4925"
       r="6.2821469"
       id="radialGradient7047"
       gradientUnits="userSpaceOnUse"
       gradientTransform="matrix(12.892155,6.5252095,-4.3241197,10.683221,4318.4486,-10747.516)">
      <stop
         id="stop7990"
         style="stop-color:#fdd99b;stop-opacity:1"
         offset="0" />
      <stop
         id="stop7992"
         style="stop-color:#fdd99b;stop-opacity:0"
         offset="1" />
    </radialGradient>
  </defs>
  <metadata
     id="metadata7994">
    <rdf:RDF>
      <cc:Work
         rdf:about="">
        <dc:format>image/svg+xml</dc:format>
        <dc:type
           rdf:resource="http://purl.org/dc/dcmitype/StillImage" />
        <dc:title></dc:title>
      </cc:Work>
    </rdf:RDF>
  </metadata>
  <path
     d="m 33.749462,41.101883 a 11.686892,4.275692 0 1 1 -23.373783,0 11.686892,4.275692 0 1 1 23.373783,0 z"
     transform="matrix(11.818066,0.6098225,-0.53052232,12.426448,-11.398577,-90.515611)"
     id="path7996"
     style="opacity:0.5;fill:#000000;filter:url(#filter4659-9-5)" />
  <path
     d="m 215.71343,28.050133 c -81.93601,0 -145.938926,84.214157 -145.938926,184.693797 0,58.50884 21.892796,110.0705 55.991386,144.14334 4.0424,6.53428 7.2177,14.89471 1.44499,27.27904 -7.94362,3.63343 -15.79606,7.35769 -21.31288,12.53533 -6.893679,6.46939 -11.920793,15.23917 -11.920793,25.06831 0,10.06152 5.520925,18.59065 12.643253,25.0683 7.12233,6.47647 16.2361,11.67416 27.09261,15.85142 21.71308,8.35335 50.41859,12.90222 82.00036,12.90222 31.5818,0 59.92604,-4.54887 81.63915,-12.90222 10.8565,-4.17726 20.33154,-9.37495 27.45377,-15.85142 7.12232,-6.47765 12.28208,-15.00678 12.28208,-25.0683 0,-9.82914 -5.02712,-18.59892 -11.9208,-25.06831 -5.50288,-5.16466 -13.0338,-8.9078 -20.95161,-12.53533 -5.77738,-12.38905 -2.59822,-20.74358 1.44493,-27.27904 34.09859,-34.07284 55.63019,-85.6345 55.63019,-144.14334 0,-100.47964 -63.6417,-184.694973 -145.57771,-184.693797 z m 0,23.593692 c 66.16458,0 122.45865,70.737445 122.45865,161.100105 0,53.59428 -20.14821,100.39119 -50.21168,129.39728 l -1.08365,1.10891 -0.72236,1.10891 c -6.73864,10.89438 -12.77917,30.4394 -2.52862,51.24315 -0.004,-0.0116 -0.19193,-0.17692 0,0.36567 l 1.80618,5.1623 5.05726,1.84266 c 8.73218,3.43642 15.35286,7.50044 19.14552,11.05955 3.79255,3.55911 4.33479,6.10251 4.33479,7.74227 0,1.59966 -0.69577,3.73489 -4.69607,7.37303 -3.99998,3.63698 -10.82725,7.9499 -19.86788,11.42761 -18.08146,6.9566 -44.46437,11.42879 -73.69198,11.42761 -29.22766,0 -55.61056,-4.47101 -73.6919,-11.42761 -9.04075,-3.47771 -16.22919,-7.79063 -20.22919,-11.42761 -4.00006,-3.63814 -4.69607,-5.77337 -4.69607,-7.37303 0,-1.63976 0.90353,-4.18316 4.69607,-7.74227 3.79264,-3.55911 10.41325,-7.62313 19.14546,-11.05955 l 4.69607,-1.84266 1.80617,-5.1623 c 0.19747,-0.56623 0.35889,-0.36567 0.36128,-0.36567 10.25055,-20.80375 4.21002,-40.34877 -2.52861,-51.24315 l -0.72241,-1.10891 -1.08373,-1.10891 c -30.06353,-29.00609 -50.573007,-75.803 -50.573007,-129.39728 0,-90.36266 56.655327,-161.101318 122.819947,-161.100105 z"
     id="path7998"
     style="text-indent:0;text-align:start;text-transform:none;direction:ltr;block-progression:tb;baseline-shift:baseline;color:#000000;fill:#816647;fill-rule:nonzero;enable-background:accumulate" />
  <g
     transform="matrix(2.9711961,1.9594732,2.0662879,-3.2799046,419.06676,-359.14789)"
     id="g8000">
    <path
       d="m 57.794592,-143.2282 c -9.67334,0 -18.35154,8.32661 -18.35154,19.63369 0,11.30707 8.6782,19.53607 18.35154,19.53607 9.67336,0 18.35154,-8.229 18.35154,-19.53607 0,-11.30708 -8.67818,-19.63369 -18.35154,-19.63369 z m 0,11.91692 c 5.10863,0 8.40093,3.95716 8.40093,7.71677 0,3.7596 -3.2923,7.71675 -8.40093,7.71675 -5.10861,0 -8.40093,-3.95715 -8.40093,-7.71675 0,-3.75961 3.29232,-7.71677 8.40093,-7.71677 z"
       id="path8002"
       style="text-indent:0;text-align:start;text-transform:none;direction:ltr;block-progression:tb;baseline-shift:baseline;color:#000000;fill:none;stroke:#816647;stroke-width:5.83496189;stroke-miterlimit:4;stroke-dasharray:none;enable-background:accumulate" />
    <path
       d="m 57.794592,-143.2282 c -9.67334,0 -18.35154,8.32661 -18.35154,19.63369 0,11.30707 8.6782,19.53607 18.35154,19.53607 9.67336,0 18.35154,-8.229 18.35154,-19.53607 0,-11.30708 -8.67818,-19.63369 -18.35154,-19.63369 z m 0,11.91692 c 5.10863,0 8.40093,3.95716 8.40093,7.71677 0,3.7596 -3.2923,7.71675 -8.40093,7.71675 -5.10861,0 -8.40093,-3.95715 -8.40093,-7.71675 0,-3.75961 3.29232,-7.71677 8.40093,-7.71677 z"
       id="path8004"
       style="text-indent:0;text-align:start;text-transform:none;direction:ltr;block-progression:tb;baseline-shift:baseline;color:#000000;fill:#d9bb7a;stroke:#fdd99b;stroke-width:2.91748095;stroke-miterlimit:4;stroke-dasharray:none;enable-background:accumulate" />
    <path
       d="m 57.794592,-143.2282 c -9.67334,0 -18.35154,8.32661 -18.35154,19.63369 0,11.30707 8.6782,19.53607 18.35154,19.53607 9.67336,0 18.35154,-8.229 18.35154,-19.53607 0,-11.30708 -8.67818,-19.63369 -18.35154,-19.63369 z m 0,11.91692 c 5.10863,0 8.40093,3.95716 8.40093,7.71677 0,3.7596 -3.2923,7.71676 -8.40093,7.71676 -5.10861,0 -8.40093,-3.95716 -8.40093,-7.71676 0,-3.75961 3.29232,-7.71677 8.40093,-7.71677 z"
       id="path8006"
       style="text-indent:0;text-align:start;text-transform:none;direction:ltr;block-progression:tb;baseline-shift:baseline;color:#000000;fill:url(#radialGradient6961);enable-background:accumulate" />
    <path
       d="m 57.794592,-143.2282 c -9.67334,0 -18.35154,8.32661 -18.35154,19.63369 0,11.30707 8.6782,19.53607 18.35154,19.53607 9.67336,0 18.35154,-8.229 18.35154,-19.53607 0,-11.30708 -8.67818,-19.63369 -18.35154,-19.63369 z m 0,11.91692 c 5.10863,0 8.40093,3.95716 8.40093,7.71677 0,3.7596 -3.2923,7.71675 -8.40093,7.71675 -5.10861,0 -8.40093,-3.95715 -8.40093,-7.71675 0,-3.75961 3.29232,-7.71677 8.40093,-7.71677 z"
       id="path8008"
       style="text-indent:0;text-align:start;text-transform:none;direction:ltr;block-progression:tb;baseline-shift:baseline;color:#000000;fill:url(#radialGradient6963);enable-background:accumulate" />
    <path
       d="m 8.6142958,13.416137 a 0.91843593,2.3435953 0 1 1 -1.8368718,0 0.91843593,2.3435953 0 1 1 1.8368718,0 z"
       transform="matrix(2.059639,3.1863268,-3.5218829,1.8634017,80.367632,-187.61921)"
       id="path8010"
       style="opacity:0.75;fill:url(#radialGradient6965)" />
  </g>
  <path
     d="M 39.253077,96.019403 C 10.511689,114.97407 1.9322286,159.28924 25.295912,196.3754 48.65957,233.46151 91.447689,243.44714 120.18908,224.4925 148.93052,205.5378 157.7116,161.54283 134.34795,124.45671 110.98428,87.370553 67.994525,77.064736 39.253077,96.019403 z m 24.623788,39.086367 c 15.178739,-10.01022 33.137443,-3.48227 40.905885,8.8489 7.76841,12.33109 6.16295,31.76136 -9.01579,41.77158 -15.178683,10.01019 -33.137419,3.48233 -40.905836,-8.84881 -7.768437,-12.33114 -6.162941,-31.76148 9.015741,-41.77167 z"
     id="path8012"
     style="text-indent:0;text-align:start;text-transform:none;direction:ltr;block-progression:tb;baseline-shift:baseline;color:#000000;fill:none;stroke:#816647;stroke-width:21.67126846;stroke-miterlimit:4;stroke-dasharray:none;enable-background:accumulate" />
  <path
     d="M 39.253077,96.019403 C 10.511689,114.97407 1.9322286,159.28924 25.295912,196.3754 48.65957,233.46151 91.447689,243.44714 120.18908,224.4925 148.93052,205.5378 157.7116,161.54283 134.34795,124.45671 110.98428,87.370553 67.994525,77.064736 39.253077,96.019403 z m 24.623788,39.086367 c 15.178739,-10.01022 33.137443,-3.48227 40.905885,8.8489 7.76841,12.33109 6.16295,31.76136 -9.01579,41.77158 -15.178683,10.01019 -33.137419,3.48233 -40.905836,-8.84881 -7.768437,-12.33114 -6.162941,-31.76148 9.015741,-41.77167 z"
     id="path8014"
     style="text-indent:0;text-align:start;text-transform:none;direction:ltr;block-progression:tb;baseline-shift:baseline;color:#000000;fill:#d9bb7a;stroke:#fdd99b;stroke-width:10.83563423;stroke-miterlimit:4;stroke-dasharray:none;enable-background:accumulate" />
  <path
     d="M 39.253077,96.019403 C 10.511689,114.97407 1.9322286,159.28924 25.295912,196.3754 48.65957,233.46151 91.447689,243.44714 120.18908,224.4925 148.93052,205.5378 157.7116,161.54283 134.34795,124.45671 110.98428,87.370553 67.994525,77.064736 39.253077,96.019403 z m 24.623788,39.086367 c 15.178739,-10.01022 33.137443,-3.48227 40.905885,8.8489 7.76841,12.33109 6.16297,31.7614 -9.01577,41.77162 -15.178682,10.01018 -33.137439,3.48229 -40.905856,-8.84885 -7.768437,-12.33114 -6.162941,-31.76148 9.015741,-41.77167 z"
     id="path8016"
     style="text-indent:0;text-align:start;text-transform:none;direction:ltr;block-progression:tb;baseline-shift:baseline;color:#000000;fill:url(#radialGradient7047);enable-background:accumulate" />
  <path
     d="M 39.253077,96.019403 C 10.511689,114.97407 1.9322286,159.28924 25.295912,196.3754 48.65957,233.46151 91.447689,243.44714 120.18908,224.4925 148.93052,205.5378 157.7116,161.54283 134.34795,124.45671 110.98428,87.370553 67.994525,77.064736 39.253077,96.019403 z m 24.623788,39.086367 c 15.178739,-10.01022 33.137443,-3.48227 40.905885,8.8489 7.76841,12.33109 6.16295,31.76136 -9.01579,41.77158 -15.178683,10.01019 -33.137419,3.48233 -40.905836,-8.84881 -7.768437,-12.33114 -6.162941,-31.76148 9.015741,-41.77167 z"
     id="path8018"
     style="text-indent:0;text-align:start;text-transform:none;direction:ltr;block-progression:tb;baseline-shift:baseline;color:#000000;fill:url(#radialGradient7044);enable-background:accumulate" />
  <path
     d="m 325.08949,59.845922 a 109.50473,47.168318 0 1 1 -219.00946,0 109.50473,47.168318 0 1 1 219.00946,0 z"
     id="path8020"
     style="fill:none;stroke:#816647;stroke-width:23.35516357;stroke-miterlimit:4;stroke-dasharray:none" />
  <path
     d="m 215.58482,39.936638 c -74.05037,0 -134.192171,77.329522 -134.192171,172.750682 0,56.62133 21.358021,106.50784 54.019041,138.01959 5.43597,8.78747 10.24837,22.73135 1.9554,39.56191 -0.31932,0.64884 -0.51838,1.20328 -0.73285,1.81318 -19.34013,7.61014 -31.04268,18.12939 -31.04268,29.59711 0,23.32473 49.1842,42.28226 109.99358,42.28226 60.80946,0 109.9936,-18.95753 109.9936,-42.28226 0,-11.46772 -11.70249,-21.98697 -31.04261,-29.59711 -0.21448,-0.61344 -0.41439,-1.16789 -0.73369,-1.81318 -8.29294,-16.83056 -3.48045,-30.77444 1.95551,-39.56191 32.66102,-31.51175 54.01903,-81.39826 54.01903,-138.01959 0,-95.42116 -60.1419,-172.750682 -134.19216,-172.750682 z"
     id="path8022"
     style="fill:#d9bb7a;stroke:#fdd99b;stroke-width:11.67757988" />
  <path
     d="m 84.585124,247.98349 c 6.817493,41.83718 25.254176,78.07742 50.934126,102.85377 5.43596,8.78748 10.09915,22.61515 1.80617,39.44572 -0.31932,0.64883 -0.50793,1.23335 -0.72237,1.84325 -19.34014,7.61014 -31.06623,18.0244 -31.06623,29.49212 0,23.32473 49.36731,42.39493 110.17669,42.39493 60.80933,0 109.81548,-19.0702 109.81548,-42.39493 0,-11.46772 -11.7261,-21.88198 -31.06623,-29.49212 -0.21447,-0.61343 -0.40313,-1.19797 -0.72241,-1.84325 -6.82862,-13.85857 -4.6967,-25.60762 -0.72236,-34.2846 -3.28462,0.93236 -6.31555,1.49084 -9.75334,2.58056 C 179.18606,391.57011 113.92144,302.65566 84.585448,247.98349 z"
     id="path8024"
     style="fill:url(#radialGradient7039)" />
  <path
     d="m 215.58482,39.936638 c -74.05037,0 -134.192171,77.329522 -134.192171,172.750682 0,56.62133 21.358021,106.50784 54.019041,138.01959 5.43597,8.78747 10.24837,22.73135 1.9554,39.56191 -0.31932,0.64884 -0.51838,1.20328 -0.73285,1.81318 -19.34013,7.61014 -31.04268,18.12939 -31.04268,29.59711 0,23.32473 49.1842,42.28226 109.99358,42.28226 60.80946,0 109.9936,-18.95753 109.9936,-42.28226 0,-11.46772 -11.70249,-21.98697 -31.04261,-29.59711 -0.21448,-0.61344 -0.41439,-1.16789 -0.73369,-1.81318 -8.29294,-16.83056 -3.48045,-30.77444 1.95551,-39.56191 32.66102,-31.51175 54.01903,-81.39826 54.01903,-138.01959 0,-95.42116 -60.1419,-172.750682 -134.19216,-172.750682 z"
     id="path8026"
     style="fill:url(#radialGradient7036)" />
  <path
     d="m 215.58482,39.936638 c -74.05037,0 -134.192171,77.329522 -134.192171,172.750682 0,56.62133 21.358021,106.50784 54.019041,138.01959 5.43597,8.78747 10.24837,22.73135 1.9554,39.56191 -0.31932,0.64884 -0.51838,1.20328 -0.73285,1.81318 -19.34013,7.61014 -31.04268,18.12939 -31.04268,29.59711 0,23.32473 49.1842,42.28226 109.99358,42.28226 60.80946,0 109.9936,-18.95753 109.9936,-42.28226 0,-11.46772 -11.70249,-21.98697 -31.04261,-29.59711 -0.21448,-0.61344 -0.41439,-1.16789 -0.73369,-1.81318 -8.29294,-16.83056 -3.48045,-30.77444 1.95551,-39.56191 32.66102,-31.51175 54.01903,-81.39826 54.01903,-138.01959 0,-95.42116 -60.1419,-172.750682 -134.19216,-172.750682 z"
     id="path8028"
     style="fill:url(#radialGradient7033)" />
  <path
     d="m 325.08949,59.845922 a 109.50473,47.168318 0 1 1 -219.00946,0 109.50473,47.168318 0 1 1 219.00946,0 z"
     id="path8030"
     style="fill:#d9bb7a;stroke:#fdd99b;stroke-width:11.67758179;stroke-miterlimit:4;stroke-dasharray:none" />
  <path
     d="m 325.08956,59.845922 a 109.50473,47.168318 0 1 1 -219.00946,0 109.50473,47.168318 0 1 1 219.00946,0 z"
     id="path8032"
     style="fill:url(#radialGradient7029)" />
  <path
     d="m 325.08956,59.845922 a 109.50473,47.168318 0 1 1 -219.00946,0 109.50473,47.168318 0 1 1 219.00946,0 z"
     id="path8034"
     style="fill:url(#radialGradient7026)" />
  <path
     d="m 143.3039,403.32123 c 0,0 -25.09989,0.37744 -26.42757,14.56383 -1.32769,14.1864 23.83473,36.5539 82.06243,31.03151 58.22761,-5.52244 11.63675,-41.9601 11.63675,-41.9601 l -8.21336,20.76293 -57.69171,-2.76677 c 0,0 -27.06932,-4.72794 -1.36646,-21.6314 z"
     id="path8036"
     style="opacity:0.75;fill:url(#radialGradient7023)" />
  <path
     d="m 167.27697,43.091974 a 14.137311,48.247514 68.403248 1 1 -16.648,-23.744869 14.137311,48.247514 68.403248 1 1 16.648,23.744869 z"
     id="path8038"
     style="opacity:0.75;fill:url(#radialGradient7020)" />
  <path
     d="m 287.88063,50.823054 a 72.295863,20.040764 0 1 1 -144.59172,0 72.295863,20.040764 0 1 1 144.59172,0 z"
     id="path8040"
     style="fill:#2e3436" />
  <path
     d="m 193.91053,118.80041 c 0,0 77.18565,-1.23534 108.26573,-19.993077 21.05161,5.958617 42.28984,111.856167 34.36387,117.829637 -18.3002,13.79209 -47.53973,-57.33538 -47.53973,-57.33538 0,0 -50.93198,-25.25787 -95.08987,-40.50118 z"
     id="path8042"
     style="fill:url(#radialGradient7016)" />
  <path
     d="m 31.241055,33.348629 a 7.525218,6.099987 0 1 1 -15.050436,0 7.525218,6.099987 0 1 1 15.050436,0 z"
     transform="matrix(10.831528,1.6800861,-1.2817515,9.6031841,25.958443,13.638335)"
     id="path8044"
     style="opacity:0.5;fill:#000000;filter:url(#filter4039-5-7)" />
  <path
     d="M 357.89082,27.829234 285.0172,287.86053 c -13.85925,-10.85797 -31.53665,-17.88686 -50.80084,-19.32879 -44.37177,-3.32456 -80.28397,25.30521 -80.21302,63.85642 0.0724,38.55408 36.0998,72.2614 80.47165,75.58215 38.15163,2.86553 69.86343,-17.80861 78.00963,-48.18459 l 0.55791,-1.50388 c 0.0958,-0.40621 0.19271,-0.83133 0.27582,-1.20708 l 54.58591,-194.9584 c 13.52147,43.01522 44.81255,75.8537 96.92722,75.26618 -33.5244,-17.86171 -50.93705,-62.1545 -58.77252,-106.56425 -7.83624,-44.408411 -5.45645,-83.938635 -5.45645,-83.938635 l -0.27104,-0.107276 0.27978,-0.889659 -42.71403,-18.085859 z"
     id="path8046"
     style="fill:#3465a4;stroke:none" />
  <path
     d="m 349.25,11.46875 -1.40625,7 -1.3125,6.65625 L 346.4375,25.5 278,269.625 c -12.85178,-6.98963 -27.36152,-11.55523 -42.90625,-12.71875 -49.88242,-3.73744 -92.86559,29.66878 -92.78125,75.5 0.0859,45.7524 41.52425,83.46373 91.28125,87.1875 42.42335,3.18637 79.63644,-19.9033 89.84375,-55.71875 l 0.5625,-1.5 0,-0.0312 0.0312,-0.0312 0.125,-0.34375 0.15625,-0.46875 0.0937,-0.5 0,-0.0312 c 0.0168,-0.0714 0.0156,-0.11947 0.0312,-0.1875 l 0.0312,-0.125 c 0.025,-0.11025 0.0402,-0.21216 0.0625,-0.3125 l 0.0312,-0.0937 0.0625,-0.21875 0,-0.0625 0,-0.0312 0.0312,-0.0312 45.8125,-163.71875 c 18.87985,31.22817 50.67234,53.36909 94.5,52.875 l 22.8125,-0.25 22.8125,-0.25 -20.125,-10.75 -20.15625,-10.75 c -27.83903,-14.83255 -45.20432,-55.4827 -52.75,-98.25 -7.51541,-42.590241 -5.30721,-80.64759 -5.28125,-81.09375 l 1.0625,-3.40625 1.59375,-5.0625 -4.90625,-2.0625 -4.875,-2.0625 -0.0312,0 -42.65625,-18.09375 -0.0312,0 -6.625,-2.78125 -6.5625,-2.78125 z m 8.65625,16.3125 0.0312,0 6.0625,2.59375 -6.09375,-2.5625 0,-0.03125 z m 7.65625,15.9375 20.71875,8.78125 -0.34375,1.125 2.75,1.09375 c -0.34695,12.742569 -0.37798,42.688983 5.875,78.125 5.36847,30.42734 15.03207,61.43037 32.1875,85.1875 -23.81927,-10.71931 -39.11838,-32.04629 -47.71875,-59.40625 l -5.875,-18.75 -5.875,-18.75 -5.3125,18.90625 -5.3125,18.90625 0,0.0312 -54.59375,194.9688 -0.0625,0.1875 -0.0312,0.21875 -0.0312,0.15625 0,0.0625 -0.0312,0.0937 c -0.008,0.0308 -0.0161,0.12553 -0.0312,0.1875 l -0.3125,0.84375 -0.0312,0 -0.0937,0.25 -0.15625,0.40625 -0.0625,0.375 0,0.0625 -0.0625,0.21875 c -6.61956,24.2115 -32.39769,41.8535 -65.8125,39.34375 -38.96515,-2.91611 -69.59763,-32.75332 -69.65625,-63.96875 -0.0576,-31.30776 28.66512,-55.14017 67.65625,-52.21875 16.97021,1.27023 32.47622,7.51076 44.46875,16.90625 l 6.875,5.375 6.875,5.375 2.34375,-8.40625 L 296.25,291 365.5625,43.71875 z m 35.03125,2.15625 0.0312,0 0.0625,0.03125 -0.0312,0.46875 -0.0312,0.46875 0,0.03125 -0.0312,0 -0.28125,-0.125 0.28125,-0.875 z m -0.25,10.96875 c -0.0534,3.387123 -0.0175,7.519121 0.0625,12.40625 -0.0736,-5.068061 -0.1313,-9.110275 -0.0625,-12.40625 z M 400.5,73.625 c 0.1672,6.011894 0.57148,13.111615 1.125,20.46875 C 401.04546,86.474102 400.65515,79.688861 400.5,73.625 z m 1.6875,27.875 c 0.27254,2.88747 0.5853,5.86887 0.9375,8.875 -0.36198,-3.05328 -0.65936,-5.96017 -0.9375,-8.875 z m 1.59375,14.34375 c 0.64813,4.90424 1.38419,9.88504 2.28125,14.96875 -0.89928,-5.09899 -1.63136,-10.09691 -2.28125,-14.96875 z m 2.28125,15 c 0.91452,5.18048 2.00525,10.3679 3.1875,15.5 -1.18914,-5.1516 -2.27135,-10.30747 -3.1875,-15.5 z m 4.3125,20.03125 c 0.81038,3.26609 1.66368,6.5102 2.59375,9.71875 -0.93086,-3.2066 -1.78283,-6.45641 -2.59375,-9.71875 z m -42.46875,11.25 c 1.40849,4.48078 3.01598,8.85606 4.8125,13.09375 L 367.4375,163.75 l 0,-0.0312 0.46875,-1.59375 z m 47.125,5.125 c 0.88317,2.73937 1.83208,5.42438 2.8125,8.09375 -0.98161,-2.67128 -1.92799,-5.35275 -2.8125,-8.09375 z m -41.75,9.1875 c 0.49284,1.13098 1.10373,2.17068 1.625,3.28125 -0.2502,-0.52678 -0.56857,-0.99977 -0.8125,-1.53125 l -0.8125,-1.75 z M 420.1875,181.5 c 1.22698,3.01984 2.57054,5.95323 3.9375,8.84375 -1.36966,-2.89665 -2.70745,-5.81631 -3.9375,-8.84375 z m 6.03125,13.34375 c 2.22228,4.33967 4.60781,8.49872 7.1875,12.4375 -2.5747,-3.93222 -4.96621,-8.09847 -7.1875,-12.4375 z m -37.75,7.125 c 0.23439,0.29832 0.48131,0.57963 0.71875,0.875 -0.23758,-0.29518 -0.48415,-0.57688 -0.71875,-0.875 z m 51.3125,14.0625 c 0.36757,0.45695 0.75111,0.89514 1.125,1.34375 -0.37355,-0.4475 -0.7577,-0.8877 -1.125,-1.34375 z m 8.53125,9.28125 c 5.01624,4.74859 10.4744,8.85208 16.5,12.0625 -1.26732,0.014 -2.47623,-0.0684 -3.71875,-0.0937 l -12.5625,-11.71875 c -0.0797,-0.0745 -0.13933,-0.17516 -0.21875,-0.25 z m -22.5,5.09375 c 0.6539,0.26124 1.3044,0.53407 1.96875,0.78125 -0.663,-0.25007 -1.31608,-0.51715 -1.96875,-0.78125 z m 6,2.15625 c 1.05981,0.33813 2.10244,0.69705 3.1875,1 -1.08165,-0.30738 -2.13079,-0.65757 -3.1875,-1 z m 6.46875,1.84375 c 1.44239,0.34716 2.88959,0.68361 4.375,0.96875 -1.48138,-0.29155 -2.93619,-0.61534 -4.375,-0.96875 z m -192.875,35.65625 c 0.45958,0.089 0.91798,0.18586 1.375,0.28125 -0.45635,-0.0951 -0.91612,-0.19255 -1.375,-0.28125 z m 11.96875,3.125 c 0.24177,0.0803 0.47795,0.16786 0.71875,0.25 -0.23954,-0.0816 -0.47825,-0.17018 -0.71875,-0.25 z m 18.8125,8.78125 c 0.7415,0.44947 1.55553,0.81239 2.28125,1.28125 l 6.625,4.28125 L 285,287.875 c -2.76061,-2.16279 -5.76727,-4.05968 -8.8125,-5.90625 z m -103.90625,7.375 c -3.27083,3.20733 -6.15583,6.72504 -8.625,10.5 2.46951,-3.77442 5.35371,-7.29335 8.625,-10.5 z m -12,16.34375 c -3.04158,6.03962 -5.06366,12.61675 -5.875,19.59375 0.81146,-6.97707 2.833,-13.55477 5.875,-19.59375 z m -2.625,47.75 c 1.57251,4.48362 3.61354,8.8077 6.09375,12.9375 -2.48057,-4.12814 -4.52098,-8.45558 -6.09375,-12.9375 z m 155.75,3.21875 0.0312,0 -0.0312,0.125 0,-0.125 z m -0.34375,1.46875 c -0.0108,0.0468 -0.0208,0.11185 -0.0312,0.15625 l 0,0.0312 -0.0312,0.125 -0.46875,1.21875 0,-0.0625 0,-0.0312 0.40625,-1.09375 0.125,-0.34375 z m -0.59375,1.625 0.0312,0 -0.0312,0.0312 0,-0.0312 z m -0.0937,0.3125 -0.0312,0.1875 c -0.15288,0.55202 -0.36285,1.07957 -0.53125,1.625 0.18671,-0.60456 0.39486,-1.19985 0.5625,-1.8125 z M 167.7813,372.40625 c 2.17667,2.94551 4.67482,5.70673 7.28125,8.375 -2.6127,-2.67183 -5.09998,-5.42488 -7.28125,-8.375 z"
     id="path8046-7-7"
     style="font-size:medium;font-style:normal;font-variant:normal;font-weight:normal;font-stretch:normal;text-indent:0;text-align:start;text-decoration:none;line-height:normal;letter-spacing:normal;word-spacing:normal;text-transform:none;direction:ltr;block-progression:tb;writing-mode:lr-tb;text-anchor:start;baseline-shift:baseline;color:#000000;fill:#3465a4;fill-opacity:1;stroke:none;stroke-width:11.67800045;marker:none;visibility:visible;display:inline;overflow:visible;enable-background:accumulate;font-family:Sans;-inkscape-font-specification:Sans" />
  <path
     d="m 353.5625,19.625 -1.40625,7.03125 0,0.03125 -70.53125,251.65625 c -13.53442,-8.74394 -29.6397,-14.32792 -46.96875,-15.625 -47.09639,-3.5287 -86.57763,27.50492 -86.5,69.6875 0.0792,42.1851 38.8054,77.85235 85.875,81.375 40.2782,3.02525 74.76697,-18.85562 83.9375,-51.96875 l 0.5625,-1.5 0.125,-0.34375 0.0625,-0.34375 c 0.0774,-0.32814 0.14738,-0.65125 0.21875,-0.96875 l 0.0937,-0.3125 49.75,-177.71875 c 16.71045,36.40901 48.57814,63.12977 96.125,62.59375 l 22.8125,-0.25 -20.15625,-10.75 c -30.72963,-16.37266 -48.05629,-58.79994 -55.75,-102.40625 -7.69805,-43.62526 -5.375,-82.59375 -5.375,-82.59375 l 0.0312,-0.46875 1.3125,-4.1875 L 402.875,40.5 360.1875,22.40625 353.5625,19.625 z m 8.15625,16.125 31.71875,13.4375 -0.3125,1 1.5,0.59375 c -0.37728,9.676731 -1.07106,42.761349 5.6875,81.0625 6.56223,37.19331 19.59793,74.95011 44.21875,97.96875 -37.32817,-6.83412 -59.94498,-34.06984 -71.0625,-69.4375 l -5.875,-18.75 -5.3125,18.90625 L 307.6875,355.5 l -0.0312,0.15625 -0.0312,0.15625 c -0.0451,0.20367 -0.10458,0.43114 -0.15625,0.65625 L 307,357.75 l -0.0937,0.25 -0.0625,0.28125 c -7.3359,27.35451 -36.11845,46.56533 -71.9375,43.875 -41.6741,-3.11885 -74.99692,-34.85819 -75.0625,-69.78125 -0.0643,-34.91984 32.29035,-61.15167 73.9375,-58.03125 18.12091,1.35636 34.70015,7.99908 47.625,18.125 l 6.875,5.375 2.3437,-8.40625 L 361.71875,35.75 z"
     id="path8046-7"
     style="font-size:medium;font-style:normal;font-variant:normal;font-weight:normal;font-stretch:normal;text-indent:0;text-align:start;text-decoration:none;line-height:normal;letter-spacing:normal;word-spacing:normal;text-transform:none;direction:ltr;block-progression:tb;writing-mode:lr-tb;text-anchor:start;baseline-shift:baseline;color:#000000;fill:#729fcf;fill-opacity:1;fill-rule:nonzero;stroke:none;stroke-width:11.67757988;marker:none;visibility:visible;display:inline;overflow:visible;enable-background:accumulate;font-family:Sans;-inkscape-font-specification:Sans" />
  <path
     d="M 357.89082,27.829234 285.0172,287.86053 c -13.85925,-10.85797 -31.53665,-17.88686 -50.80084,-19.32879 -44.37177,-3.32456 -80.28397,25.30521 -80.21302,63.85642 0.0724,38.55408 36.0998,72.2614 80.47165,75.58215 38.15163,2.86553 69.86343,-17.80861 78.00963,-48.18459 l 0.55791,-1.50388 c 0.0958,-0.40621 0.19271,-0.83133 0.27582,-1.20708 l 54.58591,-194.9584 c 13.52147,43.01522 44.81255,75.8537 96.92722,75.26618 -33.5244,-17.86171 -50.93705,-62.1545 -58.77252,-106.56425 -7.83624,-44.408411 -5.45645,-83.938635 -5.45645,-83.938635 l -0.27104,-0.107276 0.27978,-0.889659 -42.71403,-18.085859 z"
     id="path8048"
     style="fill:url(#radialGradient7010)" />
  <path
     d="m 204.06488,280.3813 c -24.57527,8.25908 -41.83025,28.83556 -42.7921,55.30818 -0.36444,10.04415 1.76331,19.69312 5.69855,28.92548 2.85073,-32.09829 29.90373,-61.30889 66.61684,-68.99784 18.46328,-3.86858 36.13704,-1.79269 50.93376,5.02648 l 0.39176,-4.74529 c -12.22553,-9.61883 -27.12807,-16.18491 -43.50129,-18.60382 -13.36846,-1.97539 -26.17706,-0.66703 -37.34736,3.08968 z"
     id="path8050"
     style="fill:url(#radialGradient7007)" />
  <path
     d="M 364.58794,35.731829 288.69527,298.89725 c 20.30261,-55.30248 61.9227,-175.01221 88.16699,-250.669383 l 21.19339,11.624232 c 0.0724,-2.02467 -0.52969,-7.952758 -0.46681,-9.526162 z"
     id="path8052"
     style="fill:url(#radialGradient7004)" />
  <path
     d="M 62.614961,111.9041 A 13.977752,37.153797 62.208601 1 1 47.644155,88.207636 13.977752,37.153797 62.208601 1 1 62.614961,111.9041 z"
     id="path8054"
     style="opacity:0.75;fill:url(#radialGradient7001)" />
  <path
     d="m 118.244,97.979252 c 0,0 50.00037,27.214358 98.88967,18.142908 48.88921,-9.07146 -36.66698,77.10735 -36.66698,77.10735 L 141.5775,304.3548 c 0,0 -97.7785,-61.23231 -23.3335,-206.375548 z"
     id="path8056"
     style="opacity:0.75;fill:url(#radialGradient6998)" />
</svg>
