<?xml version="1.0" encoding="UTF-8" standalone="no"?>
<svg
   xmlns:dc="http://purl.org/dc/elements/1.1/"
   xmlns:cc="http://creativecommons.org/ns#"
   xmlns:rdf="http://www.w3.org/1999/02/22-rdf-syntax-ns#"
   xmlns:svg="http://www.w3.org/2000/svg"
   xmlns="http://www.w3.org/2000/svg"
   xmlns:xlink="http://www.w3.org/1999/xlink"
   xmlns:sodipodi="http://sodipodi.sourceforge.net/DTD/sodipodi-0.dtd"
   xmlns:inkscape="http://www.inkscape.org/namespaces/inkscape"
   width="16"
   height="16"
   id="svg2"
   version="1.1"
   inkscape:version="0.48.4 r9939"
   sodipodi:docname="loveban.svg">
  <metadata
     id="metadata16">
    <rdf:RDF>
      <cc:Work
         rdf:about="">
        <dc:format>image/svg+xml</dc:format>
        <dc:type
           rdf:resource="http://purl.org/dc/dcmitype/StillImage" />
        <dc:title>Chinglish Banned</dc:title>
      </cc:Work>
    </rdf:RDF>
  </metadata>
  <defs
     id="defs14">
    <linearGradient
       id="linearGradient3797">
      <stop
         style="stop-color:#ffa9a9;stop-opacity:1;"
         offset="0"
         id="stop3799" />
      <stop
         style="stop-color:#d40000;stop-opacity:1;"
         offset="1"
         id="stop3801" />
    </linearGradient>
    <radialGradient
       inkscape:collect="always"
       xlink:href="#linearGradient3797"
       id="radialGradient3803"
       cx="128.52921"
       cy="141.82385"
       fx="128.52921"
       fy="141.82385"
       r="320"
       gradientTransform="matrix(0.49893362,1.2318501,-1.3550896,0.4436836,286.10978,-96.002938)"
       gradientUnits="userSpaceOnUse" />
    <radialGradient
       inkscape:collect="always"
       xlink:href="#linearGradient3797"
       id="radialGradient3805"
       gradientUnits="userSpaceOnUse"
       gradientTransform="matrix(0.49893362,1.2318501,-1.3550896,0.4436836,286.10978,-96.002938)"
       cx="128.52921"
       cy="141.82385"
       fx="128.52921"
       fy="141.82385"
       r="320" />
    <radialGradient
       inkscape:collect="always"
       xlink:href="#linearGradient3797"
       id="radialGradient3807"
       gradientUnits="userSpaceOnUse"
       gradientTransform="matrix(0.49893362,1.2318501,-1.3550896,0.4436836,286.10978,-96.002938)"
       cx="128.52921"
       cy="141.82385"
       fx="128.52921"
       fy="141.82385"
       r="320" />
    <radialGradient
       inkscape:collect="always"
       xlink:href="#linearGradient3797"
       id="radialGradient3823"
       gradientUnits="userSpaceOnUse"
       gradientTransform="matrix(0.49893362,1.2318501,-1.3550896,0.4436836,286.10978,-96.002938)"
       cx="128.52921"
       cy="141.82385"
       fx="128.52921"
       fy="141.82385"
       r="320" />
    <radialGradient
       inkscape:collect="always"
       xlink:href="#linearGradient3797"
       id="radialGradient3825"
       gradientUnits="userSpaceOnUse"
       gradientTransform="matrix(0.49893362,1.2318501,-1.3550896,0.4436836,286.10978,-96.002938)"
       cx="128.52921"
       cy="141.82385"
       fx="128.52921"
       fy="141.82385"
       r="320" />
    <radialGradient
       inkscape:collect="always"
       xlink:href="#linearGradient3797"
       id="radialGradient3827"
       gradientUnits="userSpaceOnUse"
       gradientTransform="matrix(0.49893362,1.2318501,-1.3550896,0.4436836,286.10978,-96.002938)"
       cx="128.52921"
       cy="141.82385"
       fx="128.52921"
       fy="141.82385"
       r="320" />
  </defs>
  <sodipodi:namedview
     pagecolor="#ffffff"
     bordercolor="#666666"
     borderopacity="1"
     objecttolerance="10"
     gridtolerance="10"
     guidetolerance="10"
     inkscape:pageopacity="0"
     inkscape:pageshadow="2"
     inkscape:window-width="1440"
     inkscape:window-height="845"
     id="namedview12"
     showgrid="false"
     inkscape:zoom="5.184"
     inkscape:cx="-14.4375"
     inkscape:cy="-9.5"
     inkscape:window-x="-2"
     inkscape:window-y="-3"
     inkscape:window-maximized="1"
     inkscape:current-layer="svg2" />
  <title
     id="title4">Chinglish Banned</title>
  <g
     id="g3817"
     transform="translate(10.419686,93.184153)">
    <g
       transform="translate(-10.200747,-92.683239)"
       id="g4138">
      <path
         style="fill:none;stroke:#980101;stroke-width:2;stroke-linecap:square;stroke-miterlimit:0;stroke-opacity:1;stroke-dasharray:none"
         inkscape:connector-curvature="0"
         d="M 3.5360506,3.2588163 A 6,6 0 1 1 12.021331,11.744096 6,6 0 0 1 3.5360506,3.2588163 m 1.36477,8.0105787 A 4.7412586,4.7412586 0 0 0 11.546631,4.623582 L 4.9008206,11.269395 z M 10.656571,3.7335173 A 4.7412586,4.7412586 0 0 0 4.0107506,10.379331 L 10.656571,3.7335173 z"
         id="svg_1" />
      <path
         style="fill:#d40000;stroke:none"
         inkscape:connector-curvature="0"
         d="M 3.5363506,3.2585173 A 6,6 0 1 1 12.021631,11.743797 6,6 0 0 1 3.5363506,3.2585173 m 1.36476,8.0105787 A 4.7412586,4.7412586 0 0 0 11.546931,4.623283 L 4.9011106,11.269096 z M 10.656861,3.7332193 A 4.7412586,4.7412586 0 0 0 4.0110506,10.379032 L 10.656861,3.7332193 z"
         id="svg_1-3" />
      <path
         style="fill:#ffa9a9;fill-opacity:1;stroke:none"
         d="m 7.8754506,1.4995493 a 6,6 0 0 0 -4.34375,1.75 6,6 0 0 0 0.25,8.7499997 6,6 0 0 1 0.25,-8.2499997 6,6 0 0 1 8.1875004,-0.28125 6,6 0 0 0 -4.3437504,-1.96875 z m 2.6562504,2.34375 -6.4062504,6.4062497 a 4.7412586,4.7412586 0 0 0 0.375,0.625 L 11.156701,4.2182993 a 4.7412586,4.7412586 0 0 0 -0.625,-0.375 z m 1.5,1.2812497 -0.0937,0.09375 a 4.7412586,4.7412586 0 0 1 -6.4062504,6.4375 l -0.125,0.125 a 4.7412586,4.7412586 0 0 0 6.6250004,-6.65625 z"
         id="svg_1-3-4"
         inkscape:connector-curvature="0" />
    </g>
  </g>
</svg>
